<svg xmlns="http://www.w3.org/2000/svg" viewBox="0 0 1727.35 795.88"><defs><style>.a{fill:#efebe9;}.a,.c,.d,.e,.f,.g{stroke:#555;stroke-miterlimit:10;}.b{fill:#333;}.c{fill:#fff8e1;}.d{fill:#e0f7fa;}.e{fill:#e8f5e9;}.f{fill:#fff;}.g{fill:none;stroke-width:2px;}.h{fill:#555;}.i{fill:#444;}</style></defs><rect class="a" x="0.5" y="16.82" width="368" height="244.2"/><path class="b" d="M160.09,233.71v10.44h12.06V233.71h3.26v24.94h-3.26V247H160.09v11.69h-3.22V233.71Z" transform="translate(-109.5 -110.36)"/><path class="b" d="M197.09,249.55c0,6.62-4.59,9.51-8.92,9.51-4.85,0-8.59-3.55-8.59-9.21,0-6,3.93-9.51,8.89-9.51C193.61,240.34,197.09,244.07,197.09,249.55Zm-14.21.18c0,3.93,2.26,6.89,5.44,6.89s5.44-2.93,5.44-7c0-3-1.52-6.88-5.37-6.88S182.88,246.33,182.88,249.73Z" transform="translate(-109.5 -110.36)"/><path class="b" d="M201.19,245.59c0-1.85,0-3.37-.15-4.85h2.85l.15,2.89h.11a6.18,6.18,0,0,1,5.63-3.29,5.3,5.3,0,0,1,5.07,3.59h.07a7.53,7.53,0,0,1,2-2.34,6.13,6.13,0,0,1,4-1.25c2.37,0,5.88,1.55,5.88,7.77v10.54h-3.18V248.51c0-3.44-1.26-5.51-3.89-5.51a4.2,4.2,0,0,0-3.84,3,5.3,5.3,0,0,0-.26,1.63v11.06H212.4V247.92c0-2.85-1.25-4.92-3.73-4.92a4.46,4.46,0,0,0-4,3.26,4.57,4.57,0,0,0-.25,1.59v10.8h-3.19Z" transform="translate(-109.5 -110.36)"/><path class="b" d="M233.86,250.29c.08,4.4,2.89,6.22,6.15,6.22a11.69,11.69,0,0,0,5-.93l.56,2.33a14.5,14.5,0,0,1-6,1.11c-5.51,0-8.8-3.62-8.8-9s3.18-9.65,8.4-9.65c5.84,0,7.4,5.14,7.4,8.43a11.33,11.33,0,0,1-.12,1.52Zm9.55-2.33c0-2.07-.85-5.29-4.51-5.29-3.3,0-4.74,3-5,5.29Z" transform="translate(-109.5 -110.36)"/><path class="b" d="M268.13,257.84a16.09,16.09,0,0,1-6.59,1.18c-7,0-12.32-4.44-12.32-12.62,0-7.8,5.29-13.09,13-13.09a13.27,13.27,0,0,1,5.92,1.11l-.77,2.62a11.77,11.77,0,0,0-5-1c-5.84,0-9.73,3.73-9.73,10.28,0,6.11,3.52,10,9.59,10a13,13,0,0,0,5.25-1Z" transform="translate(-109.5 -110.36)"/><path class="b" d="M287.85,249.55c0,6.62-4.59,9.51-8.92,9.51-4.85,0-8.58-3.55-8.58-9.21,0-6,3.92-9.51,8.88-9.51C284.37,240.34,287.85,244.07,287.85,249.55Zm-14.21.18c0,3.93,2.26,6.89,5.44,6.89s5.44-2.93,5.44-7c0-3-1.52-6.88-5.37-6.88S273.64,246.33,273.64,249.73Z" transform="translate(-109.5 -110.36)"/><path class="b" d="M292,245.59c0-1.85,0-3.37-.14-4.85h2.84l.15,2.89h.11a6.18,6.18,0,0,1,5.63-3.29,5.3,5.3,0,0,1,5.07,3.59h.07a7.53,7.53,0,0,1,2-2.34,6.13,6.13,0,0,1,4-1.25c2.37,0,5.88,1.55,5.88,7.77v10.54h-3.18V248.51c0-3.44-1.26-5.51-3.89-5.51a4.2,4.2,0,0,0-3.84,3,5.3,5.3,0,0,0-.26,1.63v11.06h-3.18V247.92c0-2.85-1.26-4.92-3.74-4.92a4.46,4.46,0,0,0-4,3.26,4.57,4.57,0,0,0-.25,1.59v10.8H292Z" transform="translate(-109.5 -110.36)"/><path class="b" d="M322.81,246.59c0-2.29-.07-4.14-.15-5.85h2.93l.14,3.07h.08a7,7,0,0,1,6.36-3.47c4.33,0,7.59,3.66,7.59,9.1,0,6.44-3.92,9.62-8.14,9.62a6.31,6.31,0,0,1-5.52-2.81H326V266h-3.22Zm3.22,4.77a6.76,6.76,0,0,0,.15,1.33,5,5,0,0,0,4.88,3.82c3.44,0,5.44-2.82,5.44-6.92,0-3.59-1.88-6.66-5.33-6.66a5.19,5.19,0,0,0-4.92,4,5.36,5.36,0,0,0-.22,1.33Z" transform="translate(-109.5 -110.36)"/><path class="b" d="M360.07,249.55c0,6.62-4.59,9.51-8.92,9.51-4.84,0-8.58-3.55-8.58-9.21,0-6,3.92-9.51,8.88-9.51C356.59,240.34,360.07,244.07,360.07,249.55Zm-14.21.18c0,3.93,2.26,6.89,5.44,6.89s5.44-2.93,5.44-7c0-3-1.52-6.88-5.36-6.88S345.86,246.33,345.86,249.73Z" transform="translate(-109.5 -110.36)"/><path class="b" d="M364.18,245.59c0-1.85,0-3.37-.15-4.85h2.89l.18,3h.07a6.59,6.59,0,0,1,5.92-3.36c2.48,0,6.33,1.48,6.33,7.62v10.69h-3.25V248.33c0-2.89-1.08-5.29-4.15-5.29a4.63,4.63,0,0,0-4.37,3.33,4.86,4.86,0,0,0-.22,1.51v10.77h-3.25Z" transform="translate(-109.5 -110.36)"/><path class="b" d="M386.52,250.29c.08,4.4,2.89,6.22,6.15,6.22a11.78,11.78,0,0,0,5-.93l.55,2.33a14.5,14.5,0,0,1-6,1.11c-5.51,0-8.8-3.62-8.8-9s3.18-9.65,8.4-9.65c5.84,0,7.4,5.14,7.4,8.43a11.33,11.33,0,0,1-.12,1.52Zm9.55-2.33c0-2.07-.85-5.29-4.51-5.29-3.3,0-4.74,3-5,5.29Z" transform="translate(-109.5 -110.36)"/><path class="b" d="M403.25,245.59c0-1.85,0-3.37-.15-4.85H406l.18,3h.08a6.57,6.57,0,0,1,5.92-3.36c2.48,0,6.32,1.48,6.32,7.62v10.69h-3.25V248.33c0-2.89-1.08-5.29-4.15-5.29a4.8,4.8,0,0,0-4.59,4.84v10.77h-3.25Z" transform="translate(-109.5 -110.36)"/><path class="b" d="M427.56,235.6v5.14h4.66v2.48h-4.66v9.66c0,2.22.63,3.48,2.44,3.48a7.36,7.36,0,0,0,1.89-.22l.14,2.44a7.88,7.88,0,0,1-2.88.44,4.52,4.52,0,0,1-3.52-1.37c-.92-1-1.25-2.55-1.25-4.66v-9.77H421.6v-2.48h2.78v-4.29Z" transform="translate(-109.5 -110.36)"/><path class="b" d="M110,125.36l5.58-14.5h1.36l-5.6,14.5Z" transform="translate(-109.5 -110.36)"/><path class="b" d="M118.29,110.36h1.76v6h0a3.27,3.27,0,0,1,1.26-1.24,3.62,3.62,0,0,1,1.8-.5c1.3,0,3.38.8,3.38,4.14v5.76h-1.76V119c0-1.56-.58-2.88-2.24-2.88a2.53,2.53,0,0,0-2.36,1.76,2.13,2.13,0,0,0-.12.84v5.84h-1.76Z" transform="translate(-109.5 -110.36)"/><path class="b" d="M138.15,119.64c0,3.58-2.48,5.14-4.82,5.14-2.62,0-4.64-1.92-4.64-5,0-3.24,2.12-5.14,4.8-5.14S138.15,116.68,138.15,119.64Zm-7.68.1c0,2.12,1.22,3.72,2.94,3.72s2.94-1.58,2.94-3.76c0-1.64-.82-3.72-2.9-3.72S130.47,117.9,130.47,119.74Z" transform="translate(-109.5 -110.36)"/><path class="b" d="M140.37,117.5c0-1,0-1.82-.08-2.62h1.54l.08,1.56H142a3.34,3.34,0,0,1,3-1.78,2.86,2.86,0,0,1,2.74,1.94h0a4,4,0,0,1,1.08-1.26,3.3,3.3,0,0,1,2.14-.68c1.28,0,3.18.84,3.18,4.2v5.7h-1.72v-5.48c0-1.86-.68-3-2.1-3a2.28,2.28,0,0,0-2.08,1.6,2.9,2.9,0,0,0-.14.88v6h-1.72v-5.8c0-1.54-.68-2.66-2-2.66a2.62,2.62,0,0,0-2.32,2.62v5.84h-1.72Z" transform="translate(-109.5 -110.36)"/><path class="b" d="M158,120a3.1,3.1,0,0,0,3.32,3.36,6.36,6.36,0,0,0,2.68-.5l.3,1.26a7.84,7.84,0,0,1-3.22.6c-3,0-4.76-2-4.76-4.88s1.72-5.22,4.54-5.22c3.16,0,4,2.78,4,4.56a6.64,6.64,0,0,1-.06.82Zm5.16-1.26c0-1.12-.46-2.86-2.44-2.86-1.78,0-2.56,1.64-2.7,2.86Z" transform="translate(-109.5 -110.36)"/><rect class="c" x="1358.85" y="164.72" width="368" height="533.5"/><path class="b" d="M1516.37,306.94a33.81,33.81,0,0,1,6.18-.52c3.44,0,5.66.63,7.21,2a6.2,6.2,0,0,1,2,4.74,6.54,6.54,0,0,1-4.7,6.36v.11c1.93.67,3.08,2.44,3.67,5a39.23,39.23,0,0,0,1.92,6.85h-3.33a31.88,31.88,0,0,1-1.66-6c-.74-3.44-2.08-4.73-5-4.85h-3v10.81h-3.22Zm3.22,11.36h3.29c3.44,0,5.62-1.88,5.62-4.73,0-3.22-2.33-4.63-5.73-4.67a13,13,0,0,0-3.18.3Z" transform="translate(-109.5 -110.36)"/><path class="b" d="M1552.52,322.45c0,6.62-4.59,9.51-8.92,9.51-4.85,0-8.58-3.56-8.58-9.22,0-6,3.92-9.51,8.88-9.51C1549,313.23,1552.52,317,1552.52,322.45Zm-14.21.18c0,3.92,2.26,6.88,5.44,6.88s5.44-2.92,5.44-6.95c0-3-1.52-6.88-5.37-6.88S1538.31,319.23,1538.31,322.63Z" transform="translate(-109.5 -110.36)"/><path class="b" d="M1572.83,322.45c0,6.62-4.59,9.51-8.92,9.51-4.84,0-8.58-3.56-8.58-9.22,0-6,3.92-9.51,8.88-9.51C1569.35,313.23,1572.83,317,1572.83,322.45Zm-14.21.18c0,3.92,2.26,6.88,5.44,6.88s5.44-2.92,5.44-6.95c0-3-1.52-6.88-5.37-6.88S1558.62,319.23,1558.62,322.63Z" transform="translate(-109.5 -110.36)"/><path class="b" d="M1576.94,318.49c0-1.85,0-3.37-.15-4.85h2.85l.15,2.89h.11a6.16,6.16,0,0,1,5.62-3.3,5.3,5.3,0,0,1,5.07,3.59h.07a7.49,7.49,0,0,1,2-2.33,6.16,6.16,0,0,1,4-1.26c2.37,0,5.88,1.56,5.88,7.77v10.55h-3.18V321.41c0-3.44-1.26-5.51-3.88-5.51a4.21,4.21,0,0,0-3.85,3,5.25,5.25,0,0,0-.26,1.63v11.06h-3.18V320.82c0-2.85-1.26-4.92-3.74-4.92a4.46,4.46,0,0,0-4,3.25,4.39,4.39,0,0,0-.26,1.59v10.81h-3.18Z" transform="translate(-109.5 -110.36)"/><path class="b" d="M1625.33,330.74a16,16,0,0,1-6.58,1.18c-7,0-12.33-4.44-12.33-12.62,0-7.81,5.3-13.1,13-13.1a13.42,13.42,0,0,1,5.92,1.11l-.78,2.63a11.74,11.74,0,0,0-5-1c-5.85,0-9.73,3.74-9.73,10.29,0,6.11,3.51,10,9.58,10a12.92,12.92,0,0,0,5.26-1Z" transform="translate(-109.5 -110.36)"/><path class="b" d="M1645.05,322.45c0,6.62-4.59,9.51-8.91,9.51-4.85,0-8.59-3.56-8.59-9.22,0-6,3.92-9.51,8.88-9.51C1641.58,313.23,1645.05,317,1645.05,322.45Zm-14.21.18c0,3.92,2.26,6.88,5.44,6.88s5.44-2.92,5.44-6.95c0-3-1.51-6.88-5.36-6.88S1630.84,319.23,1630.84,322.63Z" transform="translate(-109.5 -110.36)"/><path class="b" d="M1649.16,318.49c0-1.85,0-3.37-.15-4.85h2.85l.15,2.89h.11a6.16,6.16,0,0,1,5.62-3.3,5.28,5.28,0,0,1,5.07,3.59h.08a7.36,7.36,0,0,1,2-2.33,6.12,6.12,0,0,1,4-1.26c2.36,0,5.88,1.56,5.88,7.77v10.55h-3.18V321.41c0-3.44-1.26-5.51-3.89-5.51a4.22,4.22,0,0,0-3.85,3,5.25,5.25,0,0,0-.26,1.63v11.06h-3.18V320.82c0-2.85-1.26-4.92-3.74-4.92a4.46,4.46,0,0,0-4,3.25,4.61,4.61,0,0,0-.26,1.59v10.81h-3.18Z" transform="translate(-109.5 -110.36)"/><path class="b" d="M1680,319.49c0-2.3-.08-4.15-.15-5.85h2.92l.15,3.07h.07a7.07,7.07,0,0,1,6.37-3.48c4.33,0,7.58,3.67,7.58,9.11,0,6.43-3.92,9.62-8.14,9.62a6.28,6.28,0,0,1-5.51-2.82h-.07v9.74H1680Zm3.22,4.77a7.65,7.65,0,0,0,.14,1.33,5,5,0,0,0,4.89,3.81c3.44,0,5.44-2.81,5.44-6.92,0-3.59-1.89-6.66-5.33-6.66a5.64,5.64,0,0,0-5.14,5.37Z" transform="translate(-109.5 -110.36)"/><path class="b" d="M1717.28,322.45c0,6.62-4.59,9.51-8.92,9.51-4.85,0-8.58-3.56-8.58-9.22,0-6,3.92-9.51,8.88-9.51C1713.8,313.23,1717.28,317,1717.28,322.45Zm-14.21.18c0,3.92,2.26,6.88,5.44,6.88s5.44-2.92,5.44-6.95c0-3-1.52-6.88-5.37-6.88S1703.07,319.23,1703.07,322.63Z" transform="translate(-109.5 -110.36)"/><path class="b" d="M1721.38,318.49c0-1.85,0-3.37-.15-4.85h2.89l.19,3h.07a6.59,6.59,0,0,1,5.92-3.37c2.48,0,6.33,1.48,6.33,7.63v10.69h-3.26V321.23c0-2.89-1.07-5.3-4.14-5.3a4.64,4.64,0,0,0-4.37,3.33,4.68,4.68,0,0,0-.22,1.52v10.77h-3.26Z" transform="translate(-109.5 -110.36)"/><path class="b" d="M1743.73,323.19c.07,4.4,2.89,6.21,6.14,6.21a11.76,11.76,0,0,0,5-.92l.56,2.33a14.5,14.5,0,0,1-6,1.11c-5.51,0-8.81-3.63-8.81-9s3.18-9.66,8.4-9.66c5.85,0,7.4,5.15,7.4,8.44a11.85,11.85,0,0,1-.11,1.52Zm9.55-2.33c0-2.08-.85-5.3-4.52-5.3-3.29,0-4.73,3-5,5.3Z" transform="translate(-109.5 -110.36)"/><path class="b" d="M1760.45,318.49c0-1.85,0-3.37-.14-4.85h2.88l.19,3h.07a6.59,6.59,0,0,1,5.92-3.37c2.48,0,6.33,1.48,6.33,7.63v10.69h-3.26V321.23c0-2.89-1.07-5.3-4.14-5.3a4.64,4.64,0,0,0-4.37,3.33,4.68,4.68,0,0,0-.22,1.52v10.77h-3.26Z" transform="translate(-109.5 -110.36)"/><path class="b" d="M1784.76,308.5v5.14h4.67v2.48h-4.67v9.66c0,2.22.63,3.48,2.45,3.48a7.12,7.12,0,0,0,1.88-.23l.15,2.45a8.21,8.21,0,0,1-2.89.44,4.51,4.51,0,0,1-3.51-1.37c-.93-1-1.26-2.55-1.26-4.66v-9.77h-2.77v-2.48h2.77v-4.29Z" transform="translate(-109.5 -110.36)"/><path class="b" d="M1468.74,272.62l5.59-14.5h1.36l-5.61,14.5Z" transform="translate(-109.5 -110.36)"/><path class="b" d="M1477.08,265.16c0-1.14,0-2.12-.08-3h1.54l.07,1.9h.08a2.9,2.9,0,0,1,2.68-2.12,1.9,1.9,0,0,1,.5.06v1.66a2.64,2.64,0,0,0-.6-.06,2.47,2.47,0,0,0-2.36,2.26,5,5,0,0,0-.08.82v5.16h-1.75Z" transform="translate(-109.5 -110.36)"/><path class="b" d="M1492.19,266.9c0,3.58-2.48,5.14-4.82,5.14-2.62,0-4.65-1.92-4.65-5,0-3.24,2.12-5.14,4.81-5.14S1492.19,263.94,1492.19,266.9Zm-7.69.1c0,2.12,1.22,3.72,3,3.72s2.94-1.58,2.94-3.76c0-1.64-.82-3.72-2.9-3.72S1484.5,265.16,1484.5,267Z" transform="translate(-109.5 -110.36)"/><path class="b" d="M1503.17,266.9c0,3.58-2.48,5.14-4.82,5.14-2.63,0-4.64-1.92-4.64-5,0-3.24,2.12-5.14,4.8-5.14S1503.17,263.94,1503.17,266.9Zm-7.69.1c0,2.12,1.23,3.72,3,3.72s2.94-1.58,2.94-3.76c0-1.64-.82-3.72-2.91-3.72S1495.48,265.16,1495.48,267Z" transform="translate(-109.5 -110.36)"/><path class="b" d="M1505.38,264.76c0-1,0-1.82-.08-2.62h1.54l.08,1.56h.06a3.36,3.36,0,0,1,3-1.78,2.86,2.86,0,0,1,2.74,1.94h0a4,4,0,0,1,1.08-1.26,3.3,3.3,0,0,1,2.14-.68c1.28,0,3.18.84,3.18,4.2v5.7h-1.72v-5.48c0-1.86-.68-3-2.1-3a2.28,2.28,0,0,0-2.08,1.6,2.9,2.9,0,0,0-.14.88v6h-1.72V266c0-1.54-.68-2.66-2-2.66a2.4,2.4,0,0,0-2.18,1.76,2.22,2.22,0,0,0-.14.86v5.84h-1.73Z" transform="translate(-109.5 -110.36)"/><rect class="d" x="1394" y="254.14" width="298" height="206"/><path class="b" d="M1558.45,390c-.13-2.45-.29-5.38-.26-7.57h-.08c-.6,2.06-1.32,4.24-2.21,6.66l-3.09,8.5h-1.72l-2.83-8.35c-.84-2.47-1.54-4.73-2-6.81h0c0,2.19-.19,5.12-.34,7.75l-.47,7.51h-2.16l1.22-17.52h2.89l3,8.48c.73,2.15,1.33,4.08,1.77,5.9h.08c.44-1.77,1.06-3.69,1.84-5.9l3.12-8.48H1560l1.09,17.52h-2.21Z" transform="translate(-109.5 -110.36)"/><path class="b" d="M1565.94,391.85c0,3.09,2,4.37,4.31,4.37a8.37,8.37,0,0,0,3.49-.65l.39,1.63a10.14,10.14,0,0,1-4.19.78c-3.87,0-6.19-2.54-6.19-6.34s2.24-6.79,5.9-6.79c4.11,0,5.2,3.62,5.2,5.93a10.69,10.69,0,0,1-.07,1.07Zm6.7-1.64c0-1.46-.59-3.72-3.17-3.72-2.31,0-3.33,2.13-3.51,3.72Z" transform="translate(-109.5 -110.36)"/><path class="b" d="M1577.69,388.55c0-1.3,0-2.37-.11-3.41h2l.1,2h.08a4.33,4.33,0,0,1,4-2.32,3.7,3.7,0,0,1,3.56,2.53h0a5.12,5.12,0,0,1,1.41-1.64,4.29,4.29,0,0,1,2.78-.89c1.66,0,4.13,1.1,4.13,5.46v7.41h-2.23V390.6c0-2.42-.88-3.87-2.73-3.87a3,3,0,0,0-2.71,2.08,3.84,3.84,0,0,0-.18,1.14v7.77h-2.23v-7.54c0-2-.89-3.45-2.63-3.45a3.11,3.11,0,0,0-2.83,2.28,3.18,3.18,0,0,0-.19,1.12v7.59h-2.23Z" transform="translate(-109.5 -110.36)"/><path class="b" d="M1599.27,397.72c0-.85.1-2.13.1-3.25V379.26h2.26v7.91h.06a4.67,4.67,0,0,1,4.29-2.32c3.12,0,5.33,2.6,5.3,6.43,0,4.49-2.83,6.73-5.64,6.73a4.47,4.47,0,0,1-4.21-2.37h-.08l-.1,2.08Zm2.36-5a4.38,4.38,0,0,0,.11.83,3.53,3.53,0,0,0,3.43,2.68c2.39,0,3.82-1.95,3.82-4.84,0-2.52-1.3-4.68-3.74-4.68a3.66,3.66,0,0,0-3.49,2.81,4.63,4.63,0,0,0-.13.94Z" transform="translate(-109.5 -110.36)"/><path class="b" d="M1615.44,391.85c0,3.09,2,4.37,4.32,4.37a8.35,8.35,0,0,0,3.48-.65l.39,1.63a10,10,0,0,1-4.18.78c-3.88,0-6.19-2.54-6.19-6.34s2.23-6.79,5.9-6.79c4.11,0,5.2,3.62,5.2,5.93a8,8,0,0,1-.08,1.07Zm6.71-1.64c0-1.46-.6-3.72-3.17-3.72-2.32,0-3.33,2.13-3.51,3.72Z" transform="translate(-109.5 -110.36)"/><path class="b" d="M1627.19,389.07c0-1.49,0-2.76-.1-3.93h2l.08,2.47h.1a3.78,3.78,0,0,1,3.49-2.76,2.57,2.57,0,0,1,.65.08v2.16a3.6,3.6,0,0,0-.78-.08,3.2,3.2,0,0,0-3.07,2.94,6.65,6.65,0,0,0-.11,1.07v6.7h-2.26Z" transform="translate(-109.5 -110.36)"/><path class="b" d="M1648,397.15a11.18,11.18,0,0,1-4.63.83c-4.94,0-8.66-3.12-8.66-8.86,0-5.49,3.72-9.21,9.15-9.21a9.37,9.37,0,0,1,4.16.78l-.54,1.85a8.19,8.19,0,0,0-3.54-.73c-4.11,0-6.84,2.63-6.84,7.23,0,4.29,2.47,7,6.74,7a9.07,9.07,0,0,0,3.69-.73Z" transform="translate(-109.5 -110.36)"/><path class="b" d="M1661.88,391.33c0,4.65-3.23,6.68-6.27,6.68-3.41,0-6-2.5-6-6.47,0-4.22,2.75-6.69,6.24-6.69S1661.88,387.48,1661.88,391.33Zm-10,.13c0,2.75,1.59,4.83,3.82,4.83s3.83-2.05,3.83-4.88c0-2.14-1.07-4.84-3.77-4.84S1651.89,389.07,1651.89,391.46Z" transform="translate(-109.5 -110.36)"/><path class="b" d="M1664.76,388.55c0-1.3,0-2.37-.1-3.41h2l.1,2h.08a4.33,4.33,0,0,1,4-2.32,3.73,3.73,0,0,1,3.57,2.53h.05a5.1,5.1,0,0,1,1.4-1.64,4.33,4.33,0,0,1,2.78-.89c1.67,0,4.14,1.1,4.14,5.46v7.41h-2.24V390.6c0-2.42-.88-3.87-2.73-3.87a3,3,0,0,0-2.7,2.08,3.54,3.54,0,0,0-.18,1.14v7.77h-2.24v-7.54c0-2-.88-3.45-2.63-3.45a3.11,3.11,0,0,0-2.83,2.28,3.17,3.17,0,0,0-.18,1.12v7.59h-2.24Z" transform="translate(-109.5 -110.36)"/><path class="b" d="M1686.45,389.25c0-1.61-.06-2.91-.11-4.11h2.05l.11,2.16h0a5,5,0,0,1,4.47-2.45c3,0,5.33,2.58,5.33,6.4,0,4.52-2.75,6.76-5.72,6.76a4.4,4.4,0,0,1-3.87-2h0v6.84h-2.26Zm2.26,3.35a5.42,5.42,0,0,0,.1.94,3.55,3.55,0,0,0,3.43,2.68c2.42,0,3.83-2,3.83-4.87,0-2.52-1.33-4.68-3.75-4.68a3.65,3.65,0,0,0-3.46,2.84,4,4,0,0,0-.15.93Z" transform="translate(-109.5 -110.36)"/><path class="b" d="M1712.63,391.33c0,4.65-3.23,6.68-6.27,6.68-3.4,0-6-2.5-6-6.47,0-4.22,2.75-6.69,6.24-6.69S1712.63,387.48,1712.63,391.33Zm-10,.13c0,2.75,1.59,4.83,3.82,4.83s3.83-2.05,3.83-4.88c0-2.14-1.07-4.84-3.77-4.84S1702.64,389.07,1702.64,391.46Z" transform="translate(-109.5 -110.36)"/><path class="b" d="M1715.51,388.55c0-1.3,0-2.37-.1-3.41h2l.13,2.08h0a4.62,4.62,0,0,1,4.16-2.37c1.74,0,4.44,1,4.44,5.36v7.51h-2.28v-7.25c0-2-.76-3.72-2.92-3.72a3.25,3.25,0,0,0-3.06,2.34,3.17,3.17,0,0,0-.16,1.07v7.56h-2.29Z" transform="translate(-109.5 -110.36)"/><path class="b" d="M1731.22,391.85c0,3.09,2,4.37,4.31,4.37a8.37,8.37,0,0,0,3.49-.65l.39,1.63a10.14,10.14,0,0,1-4.19.78c-3.87,0-6.19-2.54-6.19-6.34s2.24-6.79,5.9-6.79c4.11,0,5.2,3.62,5.2,5.93a10.69,10.69,0,0,1-.07,1.07Zm6.7-1.64c0-1.46-.59-3.72-3.17-3.72-2.31,0-3.33,2.13-3.51,3.72Z" transform="translate(-109.5 -110.36)"/><path class="b" d="M1743,388.55c0-1.3,0-2.37-.11-3.41h2l.13,2.08h0a4.63,4.63,0,0,1,4.16-2.37c1.75,0,4.45,1,4.45,5.36v7.51h-2.29v-7.25c0-2-.75-3.72-2.91-3.72a3.26,3.26,0,0,0-3.07,2.34,3.46,3.46,0,0,0-.15,1.07v7.56H1743Z" transform="translate(-109.5 -110.36)"/><path class="b" d="M1760.05,381.53v3.61h3.28v1.74h-3.28v6.79c0,1.56.44,2.44,1.72,2.44a5.49,5.49,0,0,0,1.32-.15l.11,1.71a5.71,5.71,0,0,1-2,.31,3.13,3.13,0,0,1-2.47-1,4.64,4.64,0,0,1-.89-3.27v-6.87h-2v-1.74h2v-3Z" transform="translate(-109.5 -110.36)"/><rect class="e" x="1411" y="307.14" width="264" height="44"/><path class="b" d="M1551.18,429.49a23,23,0,0,1,4.34-.37c2.42,0,4,.45,5.07,1.43a4.35,4.35,0,0,1,1.38,3.33,4.6,4.6,0,0,1-3.3,4.47v.08c1.35.47,2.16,1.72,2.57,3.54a28.38,28.38,0,0,0,1.35,4.81h-2.34a23.85,23.85,0,0,1-1.17-4.19c-.52-2.42-1.45-3.33-3.51-3.4h-2.13v7.59h-2.26Zm2.26,8h2.32c2.41,0,4-1.33,4-3.33,0-2.26-1.64-3.25-4-3.27a9.76,9.76,0,0,0-2.24.2Z" transform="translate(-109.5 -110.36)"/><path class="b" d="M1566.47,440.9c0,3.1,2,4.37,4.31,4.37a8.37,8.37,0,0,0,3.49-.65l.39,1.64a10.31,10.31,0,0,1-4.19.78c-3.87,0-6.19-2.55-6.19-6.35s2.24-6.78,5.91-6.78c4.1,0,5.2,3.61,5.2,5.93a9.86,9.86,0,0,1-.08,1.06Zm6.71-1.64c0-1.45-.6-3.71-3.18-3.71-2.31,0-3.32,2.13-3.51,3.71Z" transform="translate(-109.5 -110.36)"/><path class="b" d="M1587.19,446.31a8.44,8.44,0,0,1-3.61.73c-3.8,0-6.27-2.58-6.27-6.42a6.4,6.4,0,0,1,6.76-6.69,7.66,7.66,0,0,1,3.17.65l-.52,1.77a5.29,5.29,0,0,0-2.65-.6c-2.89,0-4.45,2.14-4.45,4.76,0,2.91,1.88,4.71,4.37,4.71a6.44,6.44,0,0,0,2.81-.63Z" transform="translate(-109.5 -110.36)"/><path class="b" d="M1601.1,440.38c0,4.66-3.22,6.68-6.27,6.68-3.4,0-6-2.49-6-6.47,0-4.21,2.76-6.68,6.24-6.68S1601.1,436.53,1601.1,440.38Zm-10,.13c0,2.76,1.58,4.84,3.82,4.84s3.82-2.06,3.82-4.89c0-2.13-1.07-4.84-3.77-4.84S1591.12,438.12,1591.12,440.51Z" transform="translate(-109.5 -110.36)"/><path class="b" d="M1604,438.12c0-1.48,0-2.76-.11-3.93h2l.08,2.47h.11a3.76,3.76,0,0,1,3.48-2.75,2.18,2.18,0,0,1,.65.08v2.15a3.64,3.64,0,0,0-.78-.07,3.21,3.21,0,0,0-3.07,2.93,6.83,6.83,0,0,0-.1,1.07v6.71H1604Z" transform="translate(-109.5 -110.36)"/><path class="b" d="M1623.1,428.32v15.21c0,1.12,0,2.39.1,3.25h-2l-.11-2.19h0a4.65,4.65,0,0,1-4.29,2.47c-3,0-5.38-2.57-5.38-6.39,0-4.19,2.57-6.76,5.64-6.76a4.24,4.24,0,0,1,3.8,1.92h0v-7.51Zm-2.29,11a4,4,0,0,0-.11-1,3.36,3.36,0,0,0-3.3-2.65c-2.36,0-3.77,2.08-3.77,4.86,0,2.55,1.25,4.66,3.72,4.66a3.44,3.44,0,0,0,3.35-2.73,3.9,3.9,0,0,0,.11-1Z" transform="translate(-109.5 -110.36)"/><path class="b" d="M1639.22,446.21a11.39,11.39,0,0,1-4.63.83c-4.94,0-8.66-3.12-8.66-8.87,0-5.48,3.72-9.2,9.15-9.2a9.41,9.41,0,0,1,4.16.78l-.54,1.84a8.35,8.35,0,0,0-3.54-.72c-4.11,0-6.84,2.62-6.84,7.22,0,4.29,2.47,7.05,6.74,7.05a9.1,9.1,0,0,0,3.69-.73Z" transform="translate(-109.5 -110.36)"/><path class="b" d="M1653.07,440.38c0,4.66-3.22,6.68-6.26,6.68-3.41,0-6-2.49-6-6.47,0-4.21,2.75-6.68,6.24-6.68S1653.07,436.53,1653.07,440.38Zm-10,.13c0,2.76,1.58,4.84,3.82,4.84s3.82-2.06,3.82-4.89c0-2.13-1.06-4.84-3.77-4.84S1643.09,438.12,1643.09,440.51Z" transform="translate(-109.5 -110.36)"/><path class="b" d="M1656,437.6c0-1.3,0-2.37-.11-3.41h2l.1,2h.08a4.34,4.34,0,0,1,4-2.31,3.71,3.71,0,0,1,3.56,2.52h0a5.36,5.36,0,0,1,1.41-1.64,4.28,4.28,0,0,1,2.78-.88c1.67,0,4.13,1.09,4.13,5.46v7.41h-2.23v-7.13c0-2.41-.88-3.87-2.73-3.87a3,3,0,0,0-2.71,2.08,3.89,3.89,0,0,0-.18,1.14v7.78h-2.23v-7.54c0-2-.89-3.46-2.63-3.46a3.11,3.11,0,0,0-2.83,2.29,3.18,3.18,0,0,0-.19,1.12v7.59H1656Z" transform="translate(-109.5 -110.36)"/><path class="b" d="M1677.64,438.3c0-1.61-.05-2.91-.1-4.11h2l.11,2.16h0a5,5,0,0,1,4.47-2.44c3,0,5.33,2.57,5.33,6.39,0,4.53-2.76,6.76-5.72,6.76a4.4,4.4,0,0,1-3.87-2h-.06v6.84h-2.26Zm2.26,3.36a5.27,5.27,0,0,0,.11.93,3.52,3.52,0,0,0,3.43,2.68c2.42,0,3.82-2,3.82-4.86,0-2.52-1.32-4.68-3.74-4.68a3.65,3.65,0,0,0-3.46,2.83,3.7,3.7,0,0,0-.16.94Z" transform="translate(-109.5 -110.36)"/><path class="b" d="M1703.82,440.38c0,4.66-3.22,6.68-6.26,6.68-3.41,0-6-2.49-6-6.47,0-4.21,2.75-6.68,6.24-6.68S1703.82,436.53,1703.82,440.38Zm-10,.13c0,2.76,1.59,4.84,3.82,4.84s3.82-2.06,3.82-4.89c0-2.13-1.06-4.84-3.77-4.84S1693.84,438.12,1693.84,440.51Z" transform="translate(-109.5 -110.36)"/><path class="b" d="M1706.71,437.6c0-1.3,0-2.37-.1-3.41h2l.13,2.08h.06a4.63,4.63,0,0,1,4.16-2.36c1.74,0,4.44,1,4.44,5.35v7.52h-2.29v-7.26c0-2-.75-3.71-2.91-3.71a3.24,3.24,0,0,0-3.07,2.34,3.35,3.35,0,0,0-.15,1.06v7.57h-2.29Z" transform="translate(-109.5 -110.36)"/><path class="b" d="M1722.41,440.9c.06,3.1,2,4.37,4.32,4.37a8.28,8.28,0,0,0,3.48-.65l.39,1.64a10.21,10.21,0,0,1-4.18.78c-3.88,0-6.19-2.55-6.19-6.35s2.24-6.78,5.9-6.78c4.11,0,5.2,3.61,5.2,5.93a7.78,7.78,0,0,1-.08,1.06Zm6.71-1.64c0-1.45-.6-3.71-3.17-3.71-2.31,0-3.33,2.13-3.51,3.71Z" transform="translate(-109.5 -110.36)"/><path class="b" d="M1734.17,437.6c0-1.3,0-2.37-.11-3.41h2l.13,2.08h0a4.63,4.63,0,0,1,4.16-2.36c1.74,0,4.45,1,4.45,5.35v7.52h-2.29v-7.26c0-2-.76-3.71-2.91-3.71a3.24,3.24,0,0,0-3.07,2.34,3.07,3.07,0,0,0-.16,1.06v7.57h-2.28Z" transform="translate(-109.5 -110.36)"/><path class="b" d="M1751.25,430.58v3.61h3.27v1.75h-3.27v6.78c0,1.56.44,2.45,1.71,2.45a5,5,0,0,0,1.33-.16l.1,1.72a5.61,5.61,0,0,1-2,.31,3.21,3.21,0,0,1-2.48-1,4.73,4.73,0,0,1-.88-3.28v-6.86h-2v-1.75h2v-3Z" transform="translate(-109.5 -110.36)"/><rect class="e" x="1411" y="351.14" width="264" height="44"/><path class="b" d="M1551.18,473.49a23,23,0,0,1,4.34-.37c2.42,0,4,.45,5.07,1.43a4.35,4.35,0,0,1,1.38,3.33,4.6,4.6,0,0,1-3.3,4.47v.08c1.35.47,2.16,1.72,2.57,3.54a28.38,28.38,0,0,0,1.35,4.81h-2.34a23.85,23.85,0,0,1-1.17-4.19c-.52-2.42-1.45-3.33-3.51-3.4h-2.13v7.59h-2.26Zm2.26,8h2.32c2.41,0,4-1.33,4-3.33,0-2.26-1.64-3.25-4-3.27a9.76,9.76,0,0,0-2.24.2Z" transform="translate(-109.5 -110.36)"/><path class="b" d="M1566.47,484.9c0,3.1,2,4.37,4.31,4.37a8.37,8.37,0,0,0,3.49-.65l.39,1.64a10.31,10.31,0,0,1-4.19.78c-3.87,0-6.19-2.55-6.19-6.35s2.24-6.78,5.91-6.78c4.1,0,5.2,3.61,5.2,5.93a9.86,9.86,0,0,1-.08,1.06Zm6.71-1.64c0-1.45-.6-3.71-3.18-3.71-2.31,0-3.32,2.13-3.51,3.71Z" transform="translate(-109.5 -110.36)"/><path class="b" d="M1587.19,490.31a8.44,8.44,0,0,1-3.61.73c-3.8,0-6.27-2.58-6.27-6.42a6.4,6.4,0,0,1,6.76-6.69,7.66,7.66,0,0,1,3.17.65l-.52,1.77a5.29,5.29,0,0,0-2.65-.6c-2.89,0-4.45,2.14-4.45,4.76,0,2.91,1.88,4.71,4.37,4.71a6.44,6.44,0,0,0,2.81-.63Z" transform="translate(-109.5 -110.36)"/><path class="b" d="M1601.1,484.38c0,4.66-3.22,6.68-6.27,6.68-3.4,0-6-2.49-6-6.47,0-4.21,2.76-6.68,6.24-6.68S1601.1,480.53,1601.1,484.38Zm-10,.13c0,2.76,1.58,4.84,3.82,4.84s3.82-2.06,3.82-4.89c0-2.13-1.07-4.84-3.77-4.84S1591.12,482.12,1591.12,484.51Z" transform="translate(-109.5 -110.36)"/><path class="b" d="M1604,482.12c0-1.48,0-2.76-.11-3.93h2l.08,2.47h.11a3.76,3.76,0,0,1,3.48-2.75,2.18,2.18,0,0,1,.65.08v2.15a3.64,3.64,0,0,0-.78-.07,3.21,3.21,0,0,0-3.07,2.93,6.83,6.83,0,0,0-.1,1.07v6.71H1604Z" transform="translate(-109.5 -110.36)"/><path class="b" d="M1623.1,472.32v15.21c0,1.12,0,2.39.1,3.25h-2l-.11-2.19h0a4.65,4.65,0,0,1-4.29,2.47c-3,0-5.38-2.57-5.38-6.39,0-4.19,2.57-6.76,5.64-6.76a4.24,4.24,0,0,1,3.8,1.92h0v-7.51Zm-2.29,11a4,4,0,0,0-.11-1,3.36,3.36,0,0,0-3.3-2.65c-2.36,0-3.77,2.08-3.77,4.86,0,2.55,1.25,4.66,3.72,4.66a3.44,3.44,0,0,0,3.35-2.73,3.9,3.9,0,0,0,.11-1Z" transform="translate(-109.5 -110.36)"/><path class="b" d="M1639.22,490.21a11.39,11.39,0,0,1-4.63.83c-4.94,0-8.66-3.12-8.66-8.87,0-5.48,3.72-9.2,9.15-9.2a9.41,9.41,0,0,1,4.16.78l-.54,1.84a8.35,8.35,0,0,0-3.54-.72c-4.11,0-6.84,2.62-6.84,7.22,0,4.29,2.47,7.05,6.74,7.05a9.1,9.1,0,0,0,3.69-.73Z" transform="translate(-109.5 -110.36)"/><path class="b" d="M1653.07,484.38c0,4.66-3.22,6.68-6.26,6.68-3.41,0-6-2.49-6-6.47,0-4.21,2.75-6.68,6.24-6.68S1653.07,480.53,1653.07,484.38Zm-10,.13c0,2.76,1.58,4.84,3.82,4.84s3.82-2.06,3.82-4.89c0-2.13-1.06-4.84-3.77-4.84S1643.09,482.12,1643.09,484.51Z" transform="translate(-109.5 -110.36)"/><path class="b" d="M1656,481.6c0-1.3,0-2.37-.11-3.41h2l.1,2h.08a4.34,4.34,0,0,1,4-2.31,3.71,3.71,0,0,1,3.56,2.52h0a5.36,5.36,0,0,1,1.41-1.64,4.28,4.28,0,0,1,2.78-.88c1.67,0,4.13,1.09,4.13,5.46v7.41h-2.23v-7.13c0-2.41-.88-3.87-2.73-3.87a3,3,0,0,0-2.71,2.08,3.89,3.89,0,0,0-.18,1.14v7.78h-2.23v-7.54c0-2-.89-3.46-2.63-3.46a3.11,3.11,0,0,0-2.83,2.29,3.18,3.18,0,0,0-.19,1.12v7.59H1656Z" transform="translate(-109.5 -110.36)"/><path class="b" d="M1677.64,482.3c0-1.61-.05-2.91-.1-4.11h2l.11,2.16h0a5,5,0,0,1,4.47-2.44c3,0,5.33,2.57,5.33,6.39,0,4.53-2.76,6.76-5.72,6.76a4.4,4.4,0,0,1-3.87-2h-.06v6.84h-2.26Zm2.26,3.36a5.27,5.27,0,0,0,.11.93,3.52,3.52,0,0,0,3.43,2.68c2.42,0,3.82-2,3.82-4.86,0-2.52-1.32-4.68-3.74-4.68a3.65,3.65,0,0,0-3.46,2.83,3.7,3.7,0,0,0-.16.94Z" transform="translate(-109.5 -110.36)"/><path class="b" d="M1703.82,484.38c0,4.66-3.22,6.68-6.26,6.68-3.41,0-6-2.49-6-6.47,0-4.21,2.75-6.68,6.24-6.68S1703.82,480.53,1703.82,484.38Zm-10,.13c0,2.76,1.59,4.84,3.82,4.84s3.82-2.06,3.82-4.89c0-2.13-1.06-4.84-3.77-4.84S1693.84,482.12,1693.84,484.51Z" transform="translate(-109.5 -110.36)"/><path class="b" d="M1706.71,481.6c0-1.3,0-2.37-.1-3.41h2l.13,2.08h.06a4.63,4.63,0,0,1,4.16-2.36c1.74,0,4.44,1,4.44,5.35v7.52h-2.29v-7.26c0-2-.75-3.71-2.91-3.71a3.24,3.24,0,0,0-3.07,2.34,3.35,3.35,0,0,0-.15,1.06v7.57h-2.29Z" transform="translate(-109.5 -110.36)"/><path class="b" d="M1722.41,484.9c.06,3.1,2,4.37,4.32,4.37a8.28,8.28,0,0,0,3.48-.65l.39,1.64a10.21,10.21,0,0,1-4.18.78c-3.88,0-6.19-2.55-6.19-6.35s2.24-6.78,5.9-6.78c4.11,0,5.2,3.61,5.2,5.93a7.78,7.78,0,0,1-.08,1.06Zm6.71-1.64c0-1.45-.6-3.71-3.17-3.71-2.31,0-3.33,2.13-3.51,3.71Z" transform="translate(-109.5 -110.36)"/><path class="b" d="M1734.17,481.6c0-1.3,0-2.37-.11-3.41h2l.13,2.08h0a4.63,4.63,0,0,1,4.16-2.36c1.74,0,4.45,1,4.45,5.35v7.52h-2.29v-7.26c0-2-.76-3.71-2.91-3.71a3.24,3.24,0,0,0-3.07,2.34,3.07,3.07,0,0,0-.16,1.06v7.57h-2.28Z" transform="translate(-109.5 -110.36)"/><path class="b" d="M1751.25,474.58v3.61h3.27v1.75h-3.27v6.78c0,1.56.44,2.45,1.71,2.45a5,5,0,0,0,1.33-.16l.1,1.72a5.61,5.61,0,0,1-2,.31,3.21,3.21,0,0,1-2.48-1,4.73,4.73,0,0,1-.88-3.28v-6.86h-2v-1.75h2v-3Z" transform="translate(-109.5 -110.36)"/><rect class="e" x="1411" y="395.14" width="264" height="44"/><path class="b" d="M1551.18,517.49a23,23,0,0,1,4.34-.37c2.42,0,4,.45,5.07,1.43a4.35,4.35,0,0,1,1.38,3.33,4.6,4.6,0,0,1-3.3,4.47v.08c1.35.47,2.16,1.72,2.57,3.54a28.38,28.38,0,0,0,1.35,4.81h-2.34a23.85,23.85,0,0,1-1.17-4.19c-.52-2.42-1.45-3.33-3.51-3.4h-2.13v7.59h-2.26Zm2.26,8h2.32c2.41,0,4-1.33,4-3.33,0-2.26-1.64-3.25-4-3.27a9.76,9.76,0,0,0-2.24.2Z" transform="translate(-109.5 -110.36)"/><path class="b" d="M1566.47,528.9c0,3.1,2,4.37,4.31,4.37a8.37,8.37,0,0,0,3.49-.65l.39,1.64a10.31,10.31,0,0,1-4.19.78c-3.87,0-6.19-2.55-6.19-6.35s2.24-6.78,5.91-6.78c4.1,0,5.2,3.61,5.2,5.93a9.86,9.86,0,0,1-.08,1.06Zm6.71-1.64c0-1.45-.6-3.71-3.18-3.71-2.31,0-3.32,2.13-3.51,3.71Z" transform="translate(-109.5 -110.36)"/><path class="b" d="M1587.19,534.31a8.44,8.44,0,0,1-3.61.73c-3.8,0-6.27-2.58-6.27-6.42a6.4,6.4,0,0,1,6.76-6.69,7.66,7.66,0,0,1,3.17.65l-.52,1.77a5.29,5.29,0,0,0-2.65-.6c-2.89,0-4.45,2.14-4.45,4.76,0,2.91,1.88,4.71,4.37,4.71a6.44,6.44,0,0,0,2.81-.63Z" transform="translate(-109.5 -110.36)"/><path class="b" d="M1601.1,528.38c0,4.66-3.22,6.68-6.27,6.68-3.4,0-6-2.49-6-6.47,0-4.21,2.76-6.68,6.24-6.68S1601.1,524.53,1601.1,528.38Zm-10,.13c0,2.76,1.58,4.84,3.82,4.84s3.82-2.06,3.82-4.89c0-2.13-1.07-4.84-3.77-4.84S1591.12,526.12,1591.12,528.51Z" transform="translate(-109.5 -110.36)"/><path class="b" d="M1604,526.12c0-1.48,0-2.76-.11-3.93h2l.08,2.47h.11a3.76,3.76,0,0,1,3.48-2.75,2.18,2.18,0,0,1,.65.08v2.15a3.64,3.64,0,0,0-.78-.07,3.21,3.21,0,0,0-3.07,2.93,6.83,6.83,0,0,0-.1,1.07v6.71H1604Z" transform="translate(-109.5 -110.36)"/><path class="b" d="M1623.1,516.32v15.21c0,1.12,0,2.39.1,3.25h-2l-.11-2.19h0a4.65,4.65,0,0,1-4.29,2.47c-3,0-5.38-2.57-5.38-6.39,0-4.19,2.57-6.76,5.64-6.76a4.24,4.24,0,0,1,3.8,1.92h0v-7.51Zm-2.29,11a4,4,0,0,0-.11-1,3.36,3.36,0,0,0-3.3-2.65c-2.36,0-3.77,2.08-3.77,4.86,0,2.55,1.25,4.66,3.72,4.66a3.44,3.44,0,0,0,3.35-2.73,3.9,3.9,0,0,0,.11-1Z" transform="translate(-109.5 -110.36)"/><path class="b" d="M1639.22,534.21a11.39,11.39,0,0,1-4.63.83c-4.94,0-8.66-3.12-8.66-8.87,0-5.48,3.72-9.2,9.15-9.2a9.41,9.41,0,0,1,4.16.78l-.54,1.84a8.35,8.35,0,0,0-3.54-.72c-4.11,0-6.84,2.62-6.84,7.22,0,4.29,2.47,7,6.74,7a9.1,9.1,0,0,0,3.69-.73Z" transform="translate(-109.5 -110.36)"/><path class="b" d="M1653.07,528.38c0,4.66-3.22,6.68-6.26,6.68-3.41,0-6-2.49-6-6.47,0-4.21,2.75-6.68,6.24-6.68S1653.07,524.53,1653.07,528.38Zm-10,.13c0,2.76,1.58,4.84,3.82,4.84s3.82-2.06,3.82-4.89c0-2.13-1.06-4.84-3.77-4.84S1643.09,526.12,1643.09,528.51Z" transform="translate(-109.5 -110.36)"/><path class="b" d="M1656,525.6c0-1.3,0-2.37-.11-3.41h2l.1,2h.08a4.34,4.34,0,0,1,4-2.31,3.71,3.71,0,0,1,3.56,2.52h0a5.36,5.36,0,0,1,1.41-1.64,4.28,4.28,0,0,1,2.78-.88c1.67,0,4.13,1.09,4.13,5.46v7.41h-2.23v-7.13c0-2.41-.88-3.87-2.73-3.87a3,3,0,0,0-2.71,2.08,3.89,3.89,0,0,0-.18,1.14v7.78h-2.23v-7.54c0-2-.89-3.46-2.63-3.46a3.11,3.11,0,0,0-2.83,2.29,3.18,3.18,0,0,0-.19,1.12v7.59H1656Z" transform="translate(-109.5 -110.36)"/><path class="b" d="M1677.64,526.3c0-1.61-.05-2.91-.1-4.11h2l.11,2.16h0a5,5,0,0,1,4.47-2.44c3,0,5.33,2.57,5.33,6.39,0,4.53-2.76,6.76-5.72,6.76a4.4,4.4,0,0,1-3.87-2h-.06v6.84h-2.26Zm2.26,3.36a5.27,5.27,0,0,0,.11.93,3.52,3.52,0,0,0,3.43,2.68c2.42,0,3.82-2,3.82-4.86,0-2.52-1.32-4.68-3.74-4.68a3.65,3.65,0,0,0-3.46,2.83,3.7,3.7,0,0,0-.16.94Z" transform="translate(-109.5 -110.36)"/><path class="b" d="M1703.82,528.38c0,4.66-3.22,6.68-6.26,6.68-3.41,0-6-2.49-6-6.47,0-4.21,2.75-6.68,6.24-6.68S1703.82,524.53,1703.82,528.38Zm-10,.13c0,2.76,1.59,4.84,3.82,4.84s3.82-2.06,3.82-4.89c0-2.13-1.06-4.84-3.77-4.84S1693.84,526.12,1693.84,528.51Z" transform="translate(-109.5 -110.36)"/><path class="b" d="M1706.71,525.6c0-1.3,0-2.37-.1-3.41h2l.13,2.08h.06a4.63,4.63,0,0,1,4.16-2.36c1.74,0,4.44,1,4.44,5.35v7.52h-2.29v-7.26c0-2-.75-3.71-2.91-3.71a3.24,3.24,0,0,0-3.07,2.34,3.35,3.35,0,0,0-.15,1.06v7.57h-2.29Z" transform="translate(-109.5 -110.36)"/><path class="b" d="M1722.41,528.9c.06,3.1,2,4.37,4.32,4.37a8.28,8.28,0,0,0,3.48-.65l.39,1.64a10.21,10.21,0,0,1-4.18.78c-3.88,0-6.19-2.55-6.19-6.35s2.24-6.78,5.9-6.78c4.11,0,5.2,3.61,5.2,5.93a7.78,7.78,0,0,1-.08,1.06Zm6.71-1.64c0-1.45-.6-3.71-3.17-3.71-2.31,0-3.33,2.13-3.51,3.71Z" transform="translate(-109.5 -110.36)"/><path class="b" d="M1734.17,525.6c0-1.3,0-2.37-.11-3.41h2l.13,2.08h0a4.63,4.63,0,0,1,4.16-2.36c1.74,0,4.45,1,4.45,5.35v7.52h-2.29v-7.26c0-2-.76-3.71-2.91-3.71a3.24,3.24,0,0,0-3.07,2.34,3.07,3.07,0,0,0-.16,1.06v7.57h-2.28Z" transform="translate(-109.5 -110.36)"/><path class="b" d="M1751.25,518.58v3.61h3.27v1.75h-3.27v6.78c0,1.56.44,2.45,1.71,2.45a5,5,0,0,0,1.33-.16l.1,1.72a5.61,5.61,0,0,1-2,.31,3.21,3.21,0,0,1-2.48-1,4.73,4.73,0,0,1-.88-3.28v-6.86h-2v-1.75h2v-3Z" transform="translate(-109.5 -110.36)"/><rect class="d" x="1394" y="459.14" width="298" height="206"/><path class="b" d="M1558.45,595c-.13-2.45-.29-5.38-.26-7.57h-.08c-.6,2.06-1.32,4.24-2.21,6.66l-3.09,8.5h-1.72l-2.83-8.35c-.84-2.47-1.54-4.73-2-6.81h0c0,2.19-.19,5.12-.34,7.75l-.47,7.51h-2.16l1.22-17.52h2.89l3,8.48c.73,2.15,1.33,4.08,1.77,5.9h.08c.44-1.77,1.06-3.69,1.84-5.9l3.12-8.48H1560l1.09,17.52h-2.21Z" transform="translate(-109.5 -110.36)"/><path class="b" d="M1565.94,596.85c0,3.09,2,4.37,4.31,4.37a8.37,8.37,0,0,0,3.49-.65l.39,1.64a10.34,10.34,0,0,1-4.19.77c-3.87,0-6.19-2.54-6.19-6.34s2.24-6.79,5.9-6.79c4.11,0,5.2,3.62,5.2,5.93a10.69,10.69,0,0,1-.07,1.07Zm6.7-1.64c0-1.46-.59-3.72-3.17-3.72-2.31,0-3.33,2.13-3.51,3.72Z" transform="translate(-109.5 -110.36)"/><path class="b" d="M1577.69,593.55c0-1.3,0-2.37-.11-3.41h2l.1,2h.08a4.33,4.33,0,0,1,4-2.32,3.7,3.7,0,0,1,3.56,2.53h0a5.12,5.12,0,0,1,1.41-1.64,4.29,4.29,0,0,1,2.78-.89c1.66,0,4.13,1.1,4.13,5.46v7.41h-2.23V595.6c0-2.42-.88-3.87-2.73-3.87a3,3,0,0,0-2.71,2.08,3.84,3.84,0,0,0-.18,1.14v7.77h-2.23v-7.54c0-2-.89-3.45-2.63-3.45a3.11,3.11,0,0,0-2.83,2.28,3.18,3.18,0,0,0-.19,1.12v7.59h-2.23Z" transform="translate(-109.5 -110.36)"/><path class="b" d="M1599.27,602.72c0-.85.1-2.13.1-3.25V584.26h2.26v7.91h.06a4.67,4.67,0,0,1,4.29-2.32c3.12,0,5.33,2.6,5.3,6.43,0,4.49-2.83,6.73-5.64,6.73a4.47,4.47,0,0,1-4.21-2.37h-.08l-.1,2.08Zm2.36-5a4.38,4.38,0,0,0,.11.83,3.53,3.53,0,0,0,3.43,2.68c2.39,0,3.82-2,3.82-4.84,0-2.52-1.3-4.68-3.74-4.68a3.66,3.66,0,0,0-3.49,2.81,4.63,4.63,0,0,0-.13.94Z" transform="translate(-109.5 -110.36)"/><path class="b" d="M1615.44,596.85c0,3.09,2,4.37,4.32,4.37a8.35,8.35,0,0,0,3.48-.65l.39,1.64a10.25,10.25,0,0,1-4.18.77c-3.88,0-6.19-2.54-6.19-6.34s2.23-6.79,5.9-6.79c4.11,0,5.2,3.62,5.2,5.93a8,8,0,0,1-.08,1.07Zm6.71-1.64c0-1.46-.6-3.72-3.17-3.72-2.32,0-3.33,2.13-3.51,3.72Z" transform="translate(-109.5 -110.36)"/><path class="b" d="M1627.19,594.07c0-1.49,0-2.76-.1-3.93h2l.08,2.47h.1a3.78,3.78,0,0,1,3.49-2.76,2.57,2.57,0,0,1,.65.08v2.16a3.6,3.6,0,0,0-.78-.08,3.2,3.2,0,0,0-3.07,2.94,6.65,6.65,0,0,0-.11,1.07v6.7h-2.26Z" transform="translate(-109.5 -110.36)"/><path class="b" d="M1648,602.15a11.18,11.18,0,0,1-4.63.83c-4.94,0-8.66-3.12-8.66-8.86,0-5.49,3.72-9.21,9.15-9.21a9.37,9.37,0,0,1,4.16.78l-.54,1.85a8.19,8.19,0,0,0-3.54-.73c-4.11,0-6.84,2.63-6.84,7.23,0,4.29,2.47,7.05,6.74,7.05a9.07,9.07,0,0,0,3.69-.73Z" transform="translate(-109.5 -110.36)"/><path class="b" d="M1661.88,596.33c0,4.65-3.23,6.68-6.27,6.68-3.41,0-6-2.5-6-6.47,0-4.22,2.75-6.69,6.24-6.69S1661.88,592.48,1661.88,596.33Zm-10,.13c0,2.75,1.59,4.83,3.82,4.83s3.83-2,3.83-4.88c0-2.14-1.07-4.84-3.77-4.84S1651.89,594.07,1651.89,596.46Z" transform="translate(-109.5 -110.36)"/><path class="b" d="M1664.76,593.55c0-1.3,0-2.37-.1-3.41h2l.1,2h.08a4.33,4.33,0,0,1,4-2.32,3.73,3.73,0,0,1,3.57,2.53h.05a5.1,5.1,0,0,1,1.4-1.64,4.33,4.33,0,0,1,2.78-.89c1.67,0,4.14,1.1,4.14,5.46v7.41h-2.24V595.6c0-2.42-.88-3.87-2.73-3.87a3,3,0,0,0-2.7,2.08,3.54,3.54,0,0,0-.18,1.14v7.77h-2.24v-7.54c0-2-.88-3.45-2.63-3.45a3.11,3.11,0,0,0-2.83,2.28,3.17,3.17,0,0,0-.18,1.12v7.59h-2.24Z" transform="translate(-109.5 -110.36)"/><path class="b" d="M1686.45,594.25c0-1.61-.06-2.91-.11-4.11h2.05l.11,2.16h0a5,5,0,0,1,4.47-2.45c3,0,5.33,2.58,5.33,6.4,0,4.52-2.75,6.76-5.72,6.76a4.42,4.42,0,0,1-3.87-2h0v6.83h-2.26Zm2.26,3.35a5.42,5.42,0,0,0,.1.94,3.54,3.54,0,0,0,3.43,2.68c2.42,0,3.83-2,3.83-4.87,0-2.52-1.33-4.68-3.75-4.68a3.65,3.65,0,0,0-3.46,2.84,4,4,0,0,0-.15.93Z" transform="translate(-109.5 -110.36)"/><path class="b" d="M1712.63,596.33c0,4.65-3.23,6.68-6.27,6.68-3.4,0-6-2.5-6-6.47,0-4.22,2.75-6.69,6.24-6.69S1712.63,592.48,1712.63,596.33Zm-10,.13c0,2.75,1.59,4.83,3.82,4.83s3.83-2,3.83-4.88c0-2.14-1.07-4.84-3.77-4.84S1702.64,594.07,1702.64,596.46Z" transform="translate(-109.5 -110.36)"/><path class="b" d="M1715.51,593.55c0-1.3,0-2.37-.1-3.41h2l.13,2.08h0a4.62,4.62,0,0,1,4.16-2.37c1.74,0,4.44,1,4.44,5.36v7.51h-2.28v-7.25c0-2-.76-3.72-2.92-3.72a3.25,3.25,0,0,0-3.06,2.34,3.17,3.17,0,0,0-.16,1.07v7.56h-2.29Z" transform="translate(-109.5 -110.36)"/><path class="b" d="M1731.22,596.85c0,3.09,2,4.37,4.31,4.37a8.37,8.37,0,0,0,3.49-.65l.39,1.64a10.34,10.34,0,0,1-4.19.77c-3.87,0-6.19-2.54-6.19-6.34s2.24-6.79,5.9-6.79c4.11,0,5.2,3.62,5.2,5.93a10.69,10.69,0,0,1-.07,1.07Zm6.7-1.64c0-1.46-.59-3.72-3.17-3.72-2.31,0-3.33,2.13-3.51,3.72Z" transform="translate(-109.5 -110.36)"/><path class="b" d="M1743,593.55c0-1.3,0-2.37-.11-3.41h2l.13,2.08h0a4.63,4.63,0,0,1,4.16-2.37c1.75,0,4.45,1,4.45,5.36v7.51h-2.29v-7.25c0-2-.75-3.72-2.91-3.72a3.26,3.26,0,0,0-3.07,2.34,3.46,3.46,0,0,0-.15,1.07v7.56H1743Z" transform="translate(-109.5 -110.36)"/><path class="b" d="M1760.05,586.53v3.61h3.28v1.74h-3.28v6.79c0,1.56.44,2.44,1.72,2.44a5,5,0,0,0,1.32-.15l.11,1.71a5.71,5.71,0,0,1-2,.31,3.13,3.13,0,0,1-2.47-1,4.64,4.64,0,0,1-.89-3.27v-6.87h-2v-1.74h2v-3Z" transform="translate(-109.5 -110.36)"/><rect class="e" x="1411" y="512.14" width="264" height="44"/><path class="b" d="M1551.18,634.49a23,23,0,0,1,4.34-.37c2.42,0,4,.45,5.07,1.43a4.35,4.35,0,0,1,1.38,3.33,4.6,4.6,0,0,1-3.3,4.47v.08c1.35.47,2.16,1.72,2.57,3.54a28.38,28.38,0,0,0,1.35,4.81h-2.34a23.85,23.85,0,0,1-1.17-4.19c-.52-2.42-1.45-3.33-3.51-3.4h-2.13v7.59h-2.26Zm2.26,8h2.32c2.41,0,4-1.33,4-3.33,0-2.26-1.64-3.25-4-3.27a9.76,9.76,0,0,0-2.24.2Z" transform="translate(-109.5 -110.36)"/><path class="b" d="M1566.47,645.9c0,3.1,2,4.37,4.31,4.37a8.37,8.37,0,0,0,3.49-.65l.39,1.64a10.31,10.31,0,0,1-4.19.78c-3.87,0-6.19-2.55-6.19-6.35s2.24-6.78,5.91-6.78c4.1,0,5.2,3.61,5.2,5.93a9.86,9.86,0,0,1-.08,1.06Zm6.71-1.64c0-1.45-.6-3.71-3.18-3.71-2.31,0-3.32,2.13-3.51,3.71Z" transform="translate(-109.5 -110.36)"/><path class="b" d="M1587.19,651.31a8.44,8.44,0,0,1-3.61.73c-3.8,0-6.27-2.58-6.27-6.42a6.4,6.4,0,0,1,6.76-6.69,7.66,7.66,0,0,1,3.17.65l-.52,1.77a5.29,5.29,0,0,0-2.65-.6c-2.89,0-4.45,2.14-4.45,4.76,0,2.91,1.88,4.71,4.37,4.71a6.44,6.44,0,0,0,2.81-.63Z" transform="translate(-109.5 -110.36)"/><path class="b" d="M1601.1,645.38c0,4.66-3.22,6.68-6.27,6.68-3.4,0-6-2.49-6-6.47,0-4.21,2.76-6.68,6.24-6.68S1601.1,641.53,1601.1,645.38Zm-10,.13c0,2.76,1.58,4.84,3.82,4.84s3.82-2.06,3.82-4.89c0-2.13-1.07-4.84-3.77-4.84S1591.12,643.12,1591.12,645.51Z" transform="translate(-109.5 -110.36)"/><path class="b" d="M1604,643.12c0-1.48,0-2.76-.11-3.93h2l.08,2.47h.11a3.76,3.76,0,0,1,3.48-2.75,2.18,2.18,0,0,1,.65.08v2.15a3.64,3.64,0,0,0-.78-.07,3.21,3.21,0,0,0-3.07,2.93,6.83,6.83,0,0,0-.1,1.07v6.71H1604Z" transform="translate(-109.5 -110.36)"/><path class="b" d="M1623.1,633.32v15.21c0,1.12,0,2.39.1,3.25h-2l-.11-2.19h0a4.65,4.65,0,0,1-4.29,2.47c-3,0-5.38-2.57-5.38-6.39,0-4.19,2.57-6.76,5.64-6.76a4.24,4.24,0,0,1,3.8,1.92h0v-7.51Zm-2.29,11a4,4,0,0,0-.11-1,3.36,3.36,0,0,0-3.3-2.65c-2.36,0-3.77,2.08-3.77,4.86,0,2.55,1.25,4.66,3.72,4.66a3.44,3.44,0,0,0,3.35-2.73,3.9,3.9,0,0,0,.11-1Z" transform="translate(-109.5 -110.36)"/><path class="b" d="M1639.22,651.21a11.39,11.39,0,0,1-4.63.83c-4.94,0-8.66-3.12-8.66-8.87,0-5.48,3.72-9.2,9.15-9.2a9.41,9.41,0,0,1,4.16.78l-.54,1.84a8.35,8.35,0,0,0-3.54-.72c-4.11,0-6.84,2.62-6.84,7.22,0,4.29,2.47,7,6.74,7a9.1,9.1,0,0,0,3.69-.73Z" transform="translate(-109.5 -110.36)"/><path class="b" d="M1653.07,645.38c0,4.66-3.22,6.68-6.26,6.68-3.41,0-6-2.49-6-6.47,0-4.21,2.75-6.68,6.24-6.68S1653.07,641.53,1653.07,645.38Zm-10,.13c0,2.76,1.58,4.84,3.82,4.84s3.82-2.06,3.82-4.89c0-2.13-1.06-4.84-3.77-4.84S1643.09,643.12,1643.09,645.51Z" transform="translate(-109.5 -110.36)"/><path class="b" d="M1656,642.6c0-1.3,0-2.37-.11-3.41h2l.1,2h.08a4.34,4.34,0,0,1,4-2.31,3.71,3.71,0,0,1,3.56,2.52h0a5.36,5.36,0,0,1,1.41-1.64,4.28,4.28,0,0,1,2.78-.88c1.67,0,4.13,1.09,4.13,5.46v7.41h-2.23v-7.13c0-2.41-.88-3.87-2.73-3.87a3,3,0,0,0-2.71,2.08,3.89,3.89,0,0,0-.18,1.14v7.78h-2.23v-7.54c0-2-.89-3.46-2.63-3.46a3.11,3.11,0,0,0-2.83,2.29,3.18,3.18,0,0,0-.19,1.12v7.59H1656Z" transform="translate(-109.5 -110.36)"/><path class="b" d="M1677.64,643.3c0-1.61-.05-2.91-.1-4.11h2l.11,2.16h0a5,5,0,0,1,4.47-2.44c3,0,5.33,2.57,5.33,6.39,0,4.53-2.76,6.76-5.72,6.76a4.4,4.4,0,0,1-3.87-2h-.06v6.84h-2.26Zm2.26,3.36a5.27,5.27,0,0,0,.11.93,3.52,3.52,0,0,0,3.43,2.68c2.42,0,3.82-2,3.82-4.86,0-2.52-1.32-4.68-3.74-4.68a3.65,3.65,0,0,0-3.46,2.83,3.7,3.7,0,0,0-.16.94Z" transform="translate(-109.5 -110.36)"/><path class="b" d="M1703.82,645.38c0,4.66-3.22,6.68-6.26,6.68-3.41,0-6-2.49-6-6.47,0-4.21,2.75-6.68,6.24-6.68S1703.82,641.53,1703.82,645.38Zm-10,.13c0,2.76,1.59,4.84,3.82,4.84s3.82-2.06,3.82-4.89c0-2.13-1.06-4.84-3.77-4.84S1693.84,643.12,1693.84,645.51Z" transform="translate(-109.5 -110.36)"/><path class="b" d="M1706.71,642.6c0-1.3,0-2.37-.1-3.41h2l.13,2.08h.06a4.63,4.63,0,0,1,4.16-2.36c1.74,0,4.44,1,4.44,5.35v7.52h-2.29v-7.26c0-2-.75-3.71-2.91-3.71a3.24,3.24,0,0,0-3.07,2.34,3.35,3.35,0,0,0-.15,1.06v7.57h-2.29Z" transform="translate(-109.5 -110.36)"/><path class="b" d="M1722.41,645.9c.06,3.1,2,4.37,4.32,4.37a8.28,8.28,0,0,0,3.48-.65l.39,1.64a10.21,10.21,0,0,1-4.18.78c-3.88,0-6.19-2.55-6.19-6.35s2.24-6.78,5.9-6.78c4.11,0,5.2,3.61,5.2,5.93a7.78,7.78,0,0,1-.08,1.06Zm6.71-1.64c0-1.45-.6-3.71-3.17-3.71-2.31,0-3.33,2.13-3.51,3.71Z" transform="translate(-109.5 -110.36)"/><path class="b" d="M1734.17,642.6c0-1.3,0-2.37-.11-3.41h2l.13,2.08h0a4.63,4.63,0,0,1,4.16-2.36c1.74,0,4.45,1,4.45,5.35v7.52h-2.29v-7.26c0-2-.76-3.71-2.91-3.71a3.24,3.24,0,0,0-3.07,2.34,3.07,3.07,0,0,0-.16,1.06v7.57h-2.28Z" transform="translate(-109.5 -110.36)"/><path class="b" d="M1751.25,635.58v3.61h3.27v1.75h-3.27v6.78c0,1.56.44,2.45,1.71,2.45a5,5,0,0,0,1.33-.16l.1,1.72a5.61,5.61,0,0,1-2,.31,3.21,3.21,0,0,1-2.48-1,4.73,4.73,0,0,1-.88-3.28v-6.86h-2v-1.75h2v-3Z" transform="translate(-109.5 -110.36)"/><rect class="e" x="1411" y="556.14" width="264" height="44"/><path class="b" d="M1551.18,678.49a23,23,0,0,1,4.34-.37c2.42,0,4,.45,5.07,1.43a4.35,4.35,0,0,1,1.38,3.33,4.6,4.6,0,0,1-3.3,4.47v.08c1.35.47,2.16,1.72,2.57,3.54a28.38,28.38,0,0,0,1.35,4.81h-2.34a23.85,23.85,0,0,1-1.17-4.19c-.52-2.42-1.45-3.33-3.51-3.4h-2.13v7.59h-2.26Zm2.26,8h2.32c2.41,0,4-1.33,4-3.33,0-2.26-1.64-3.25-4-3.27a9.76,9.76,0,0,0-2.24.2Z" transform="translate(-109.5 -110.36)"/><path class="b" d="M1566.47,689.9c0,3.1,2,4.37,4.31,4.37a8.37,8.37,0,0,0,3.49-.65l.39,1.64a10.31,10.31,0,0,1-4.19.78c-3.87,0-6.19-2.55-6.19-6.35s2.24-6.78,5.91-6.78c4.1,0,5.2,3.61,5.2,5.93a9.86,9.86,0,0,1-.08,1.06Zm6.71-1.64c0-1.45-.6-3.71-3.18-3.71-2.31,0-3.32,2.13-3.51,3.71Z" transform="translate(-109.5 -110.36)"/><path class="b" d="M1587.19,695.31a8.44,8.44,0,0,1-3.61.73c-3.8,0-6.27-2.58-6.27-6.42a6.4,6.4,0,0,1,6.76-6.69,7.66,7.66,0,0,1,3.17.65l-.52,1.77a5.29,5.29,0,0,0-2.65-.6c-2.89,0-4.45,2.14-4.45,4.76,0,2.91,1.88,4.71,4.37,4.71a6.44,6.44,0,0,0,2.81-.63Z" transform="translate(-109.5 -110.36)"/><path class="b" d="M1601.1,689.38c0,4.66-3.22,6.68-6.27,6.68-3.4,0-6-2.49-6-6.47,0-4.21,2.76-6.68,6.24-6.68S1601.1,685.53,1601.1,689.38Zm-10,.13c0,2.76,1.58,4.84,3.82,4.84s3.82-2.06,3.82-4.89c0-2.13-1.07-4.84-3.77-4.84S1591.12,687.12,1591.12,689.51Z" transform="translate(-109.5 -110.36)"/><path class="b" d="M1604,687.12c0-1.48,0-2.76-.11-3.93h2l.08,2.47h.11a3.76,3.76,0,0,1,3.48-2.75,2.18,2.18,0,0,1,.65.08v2.15a3.64,3.64,0,0,0-.78-.07,3.21,3.21,0,0,0-3.07,2.93,6.83,6.83,0,0,0-.1,1.07v6.71H1604Z" transform="translate(-109.5 -110.36)"/><path class="b" d="M1623.1,677.32v15.21c0,1.12,0,2.39.1,3.25h-2l-.11-2.19h0a4.65,4.65,0,0,1-4.29,2.47c-3,0-5.38-2.57-5.38-6.39,0-4.19,2.57-6.76,5.64-6.76a4.24,4.24,0,0,1,3.8,1.92h0v-7.51Zm-2.29,11a4,4,0,0,0-.11-1,3.36,3.36,0,0,0-3.3-2.65c-2.36,0-3.77,2.08-3.77,4.86,0,2.55,1.25,4.66,3.72,4.66a3.44,3.44,0,0,0,3.35-2.73,3.9,3.9,0,0,0,.11-1Z" transform="translate(-109.5 -110.36)"/><path class="b" d="M1639.22,695.21a11.39,11.39,0,0,1-4.63.83c-4.94,0-8.66-3.12-8.66-8.87,0-5.48,3.72-9.2,9.15-9.2a9.41,9.41,0,0,1,4.16.78l-.54,1.84a8.35,8.35,0,0,0-3.54-.72c-4.11,0-6.84,2.62-6.84,7.22,0,4.29,2.47,7,6.74,7a9.1,9.1,0,0,0,3.69-.73Z" transform="translate(-109.5 -110.36)"/><path class="b" d="M1653.07,689.38c0,4.66-3.22,6.68-6.26,6.68-3.41,0-6-2.49-6-6.47,0-4.21,2.75-6.68,6.24-6.68S1653.07,685.53,1653.07,689.38Zm-10,.13c0,2.76,1.58,4.84,3.82,4.84s3.82-2.06,3.82-4.89c0-2.13-1.06-4.84-3.77-4.84S1643.09,687.12,1643.09,689.51Z" transform="translate(-109.5 -110.36)"/><path class="b" d="M1656,686.6c0-1.3,0-2.37-.11-3.41h2l.1,2h.08a4.34,4.34,0,0,1,4-2.31,3.71,3.71,0,0,1,3.56,2.52h0a5.36,5.36,0,0,1,1.41-1.64,4.28,4.28,0,0,1,2.78-.88c1.67,0,4.13,1.09,4.13,5.46v7.41h-2.23v-7.13c0-2.41-.88-3.87-2.73-3.87a3,3,0,0,0-2.71,2.08,3.89,3.89,0,0,0-.18,1.14v7.78h-2.23v-7.54c0-2-.89-3.46-2.63-3.46a3.11,3.11,0,0,0-2.83,2.29,3.18,3.18,0,0,0-.19,1.12v7.59H1656Z" transform="translate(-109.5 -110.36)"/><path class="b" d="M1677.64,687.3c0-1.61-.05-2.91-.1-4.11h2l.11,2.16h0a5,5,0,0,1,4.47-2.44c3,0,5.33,2.57,5.33,6.39,0,4.53-2.76,6.76-5.72,6.76a4.4,4.4,0,0,1-3.87-2h-.06v6.84h-2.26Zm2.26,3.36a5.27,5.27,0,0,0,.11.93,3.52,3.52,0,0,0,3.43,2.68c2.42,0,3.82-2,3.82-4.86,0-2.52-1.32-4.68-3.74-4.68a3.65,3.65,0,0,0-3.46,2.83,3.7,3.7,0,0,0-.16.94Z" transform="translate(-109.5 -110.36)"/><path class="b" d="M1703.82,689.38c0,4.66-3.22,6.68-6.26,6.68-3.41,0-6-2.49-6-6.47,0-4.21,2.75-6.68,6.24-6.68S1703.82,685.53,1703.82,689.38Zm-10,.13c0,2.76,1.59,4.84,3.82,4.84s3.82-2.06,3.82-4.89c0-2.13-1.06-4.84-3.77-4.84S1693.84,687.12,1693.84,689.51Z" transform="translate(-109.5 -110.36)"/><path class="b" d="M1706.71,686.6c0-1.3,0-2.37-.1-3.41h2l.13,2.08h.06a4.63,4.63,0,0,1,4.16-2.36c1.74,0,4.44,1,4.44,5.35v7.52h-2.29v-7.26c0-2-.75-3.71-2.91-3.71a3.24,3.24,0,0,0-3.07,2.34,3.35,3.35,0,0,0-.15,1.06v7.57h-2.29Z" transform="translate(-109.5 -110.36)"/><path class="b" d="M1722.41,689.9c.06,3.1,2,4.37,4.32,4.37a8.28,8.28,0,0,0,3.48-.65l.39,1.64a10.21,10.21,0,0,1-4.18.78c-3.88,0-6.19-2.55-6.19-6.35s2.24-6.78,5.9-6.78c4.11,0,5.2,3.61,5.2,5.93a7.78,7.78,0,0,1-.08,1.06Zm6.71-1.64c0-1.45-.6-3.71-3.17-3.71-2.31,0-3.33,2.13-3.51,3.71Z" transform="translate(-109.5 -110.36)"/><path class="b" d="M1734.17,686.6c0-1.3,0-2.37-.11-3.41h2l.13,2.08h0a4.63,4.63,0,0,1,4.16-2.36c1.74,0,4.45,1,4.45,5.35v7.52h-2.29v-7.26c0-2-.76-3.71-2.91-3.71a3.24,3.24,0,0,0-3.07,2.34,3.07,3.07,0,0,0-.16,1.06v7.57h-2.28Z" transform="translate(-109.5 -110.36)"/><path class="b" d="M1751.25,679.58v3.61h3.27v1.75h-3.27v6.78c0,1.56.44,2.45,1.71,2.45a5,5,0,0,0,1.33-.16l.1,1.72a5.61,5.61,0,0,1-2,.31,3.21,3.21,0,0,1-2.48-1,4.73,4.73,0,0,1-.88-3.28v-6.86h-2v-1.75h2v-3Z" transform="translate(-109.5 -110.36)"/><rect class="e" x="1411" y="600.14" width="264" height="44"/><path class="b" d="M1551.18,722.49a23,23,0,0,1,4.34-.37c2.42,0,4,.45,5.07,1.43a4.35,4.35,0,0,1,1.38,3.33,4.6,4.6,0,0,1-3.3,4.47v.08c1.35.47,2.16,1.72,2.57,3.54a28.38,28.38,0,0,0,1.35,4.81h-2.34a23.85,23.85,0,0,1-1.17-4.19c-.52-2.42-1.45-3.33-3.51-3.4h-2.13v7.59h-2.26Zm2.26,8h2.32c2.41,0,4-1.33,4-3.33,0-2.26-1.64-3.25-4-3.27a9.76,9.76,0,0,0-2.24.2Z" transform="translate(-109.5 -110.36)"/><path class="b" d="M1566.47,733.9c0,3.1,2,4.37,4.31,4.37a8.37,8.37,0,0,0,3.49-.65l.39,1.64a10.31,10.31,0,0,1-4.19.78c-3.87,0-6.19-2.55-6.19-6.35s2.24-6.78,5.91-6.78c4.1,0,5.2,3.61,5.2,5.93a9.86,9.86,0,0,1-.08,1.06Zm6.71-1.64c0-1.45-.6-3.71-3.18-3.71-2.31,0-3.32,2.13-3.51,3.71Z" transform="translate(-109.5 -110.36)"/><path class="b" d="M1587.19,739.31a8.44,8.44,0,0,1-3.61.73c-3.8,0-6.27-2.58-6.27-6.42a6.4,6.4,0,0,1,6.76-6.69,7.66,7.66,0,0,1,3.17.65l-.52,1.77a5.29,5.29,0,0,0-2.65-.6c-2.89,0-4.45,2.14-4.45,4.76,0,2.91,1.88,4.71,4.37,4.71a6.44,6.44,0,0,0,2.81-.63Z" transform="translate(-109.5 -110.36)"/><path class="b" d="M1601.1,733.38c0,4.66-3.22,6.68-6.27,6.68-3.4,0-6-2.49-6-6.47,0-4.21,2.76-6.68,6.24-6.68S1601.1,729.53,1601.1,733.38Zm-10,.13c0,2.76,1.58,4.84,3.82,4.84s3.82-2.06,3.82-4.89c0-2.13-1.07-4.84-3.77-4.84S1591.12,731.12,1591.12,733.51Z" transform="translate(-109.5 -110.36)"/><path class="b" d="M1604,731.12c0-1.48,0-2.76-.11-3.93h2l.08,2.47h.11a3.76,3.76,0,0,1,3.48-2.75,2.18,2.18,0,0,1,.65.08v2.15a3.64,3.64,0,0,0-.78-.07,3.21,3.21,0,0,0-3.07,2.93,6.83,6.83,0,0,0-.1,1.07v6.71H1604Z" transform="translate(-109.5 -110.36)"/><path class="b" d="M1623.1,721.32v15.21c0,1.12,0,2.39.1,3.25h-2l-.11-2.19h0a4.65,4.65,0,0,1-4.29,2.47c-3,0-5.38-2.57-5.38-6.39,0-4.19,2.57-6.76,5.64-6.76a4.24,4.24,0,0,1,3.8,1.92h0v-7.51Zm-2.29,11a4,4,0,0,0-.11-1,3.36,3.36,0,0,0-3.3-2.65c-2.36,0-3.77,2.08-3.77,4.86,0,2.55,1.25,4.66,3.72,4.66a3.44,3.44,0,0,0,3.35-2.73,3.9,3.9,0,0,0,.11-1Z" transform="translate(-109.5 -110.36)"/><path class="b" d="M1639.22,739.21a11.39,11.39,0,0,1-4.63.83c-4.94,0-8.66-3.12-8.66-8.87,0-5.48,3.72-9.2,9.15-9.2a9.41,9.41,0,0,1,4.16.78l-.54,1.84a8.35,8.35,0,0,0-3.54-.72c-4.11,0-6.84,2.62-6.84,7.22,0,4.29,2.47,7,6.74,7a9.1,9.1,0,0,0,3.69-.73Z" transform="translate(-109.5 -110.36)"/><path class="b" d="M1653.07,733.38c0,4.66-3.22,6.68-6.26,6.68-3.41,0-6-2.49-6-6.47,0-4.21,2.75-6.68,6.24-6.68S1653.07,729.53,1653.07,733.38Zm-10,.13c0,2.76,1.58,4.84,3.82,4.84s3.82-2.06,3.82-4.89c0-2.13-1.06-4.84-3.77-4.84S1643.09,731.12,1643.09,733.51Z" transform="translate(-109.5 -110.36)"/><path class="b" d="M1656,730.6c0-1.3,0-2.37-.11-3.41h2l.1,2h.08a4.34,4.34,0,0,1,4-2.31,3.71,3.71,0,0,1,3.56,2.52h0a5.36,5.36,0,0,1,1.41-1.64,4.28,4.28,0,0,1,2.78-.88c1.67,0,4.13,1.09,4.13,5.46v7.41h-2.23v-7.13c0-2.41-.88-3.87-2.73-3.87a3,3,0,0,0-2.71,2.08,3.89,3.89,0,0,0-.18,1.14v7.78h-2.23v-7.54c0-2-.89-3.46-2.63-3.46a3.11,3.11,0,0,0-2.83,2.29,3.18,3.18,0,0,0-.19,1.12v7.59H1656Z" transform="translate(-109.5 -110.36)"/><path class="b" d="M1677.64,731.3c0-1.61-.05-2.91-.1-4.11h2l.11,2.16h0a5,5,0,0,1,4.47-2.44c3,0,5.33,2.57,5.33,6.39,0,4.53-2.76,6.76-5.72,6.76a4.4,4.4,0,0,1-3.87-2h-.06v6.84h-2.26Zm2.26,3.36a5.27,5.27,0,0,0,.11.93,3.52,3.52,0,0,0,3.43,2.68c2.42,0,3.82-2,3.82-4.86,0-2.52-1.32-4.68-3.74-4.68a3.65,3.65,0,0,0-3.46,2.83,3.7,3.7,0,0,0-.16.94Z" transform="translate(-109.5 -110.36)"/><path class="b" d="M1703.82,733.38c0,4.66-3.22,6.68-6.26,6.68-3.41,0-6-2.49-6-6.47,0-4.21,2.75-6.68,6.24-6.68S1703.82,729.53,1703.82,733.38Zm-10,.13c0,2.76,1.59,4.84,3.82,4.84s3.82-2.06,3.82-4.89c0-2.13-1.06-4.84-3.77-4.84S1693.84,731.12,1693.84,733.51Z" transform="translate(-109.5 -110.36)"/><path class="b" d="M1706.71,730.6c0-1.3,0-2.37-.1-3.41h2l.13,2.08h.06a4.63,4.63,0,0,1,4.16-2.36c1.74,0,4.44,1,4.44,5.35v7.52h-2.29v-7.26c0-2-.75-3.71-2.91-3.71a3.24,3.24,0,0,0-3.07,2.34,3.35,3.35,0,0,0-.15,1.06v7.57h-2.29Z" transform="translate(-109.5 -110.36)"/><path class="b" d="M1722.41,733.9c.06,3.1,2,4.37,4.32,4.37a8.28,8.28,0,0,0,3.48-.65l.39,1.64a10.21,10.21,0,0,1-4.18.78c-3.88,0-6.19-2.55-6.19-6.35s2.24-6.78,5.9-6.78c4.11,0,5.2,3.61,5.2,5.93a7.78,7.78,0,0,1-.08,1.06Zm6.71-1.64c0-1.45-.6-3.71-3.17-3.71-2.31,0-3.33,2.13-3.51,3.71Z" transform="translate(-109.5 -110.36)"/><path class="b" d="M1734.17,730.6c0-1.3,0-2.37-.11-3.41h2l.13,2.08h0a4.63,4.63,0,0,1,4.16-2.36c1.74,0,4.45,1,4.45,5.35v7.52h-2.29v-7.26c0-2-.76-3.71-2.91-3.71a3.24,3.24,0,0,0-3.07,2.34,3.07,3.07,0,0,0-.16,1.06v7.57h-2.28Z" transform="translate(-109.5 -110.36)"/><path class="b" d="M1751.25,723.58v3.61h3.27v1.75h-3.27v6.78c0,1.56.44,2.45,1.71,2.45a5,5,0,0,0,1.33-.16l.1,1.72a5.61,5.61,0,0,1-2,.31,3.21,3.21,0,0,1-2.48-1,4.73,4.73,0,0,1-.88-3.28v-6.86h-2v-1.75h2v-3Z" transform="translate(-109.5 -110.36)"/><rect class="a" x="2.5" y="551.45" width="368" height="243.93"/><path class="b" d="M125.59,793.28V768.34h3.51l8,12.62a69.84,69.84,0,0,1,4.47,8.1l.08,0c-.3-3.33-.37-6.37-.37-10.25V768.34h3v24.94h-3.25l-7.92-12.65a78.18,78.18,0,0,1-4.66-8.33l-.12,0c.19,3.14.26,6.14.26,10.28v10.66Z" transform="translate(-109.5 -110.36)"/><path class="b" d="M151.64,784.92c.07,4.4,2.88,6.21,6.14,6.21a11.76,11.76,0,0,0,5-.92l.55,2.33a14.4,14.4,0,0,1-5.95,1.11c-5.52,0-8.81-3.63-8.81-9s3.18-9.66,8.4-9.66c5.84,0,7.4,5.15,7.4,8.44a11.85,11.85,0,0,1-.11,1.52Zm9.54-2.33c0-2.08-.85-5.29-4.51-5.29-3.29,0-4.74,3-5,5.29Z" transform="translate(-109.5 -110.36)"/><path class="b" d="M169.66,775.37l2.36,9.1c.52,2,1,3.85,1.34,5.7h.11c.4-1.81,1-3.74,1.59-5.66l2.92-9.14h2.74l2.78,9c.66,2.14,1.18,4,1.59,5.84h.11a50.94,50.94,0,0,1,1.37-5.81l2.55-9h3.22l-5.77,17.91h-3l-2.74-8.55a58.34,58.34,0,0,1-1.59-5.88h-.08a51.48,51.48,0,0,1-1.63,5.92l-2.88,8.51h-3l-5.4-17.91Z" transform="translate(-109.5 -110.36)"/><path class="b" d="M195.7,768.67a33.88,33.88,0,0,1,6.18-.51c3.44,0,5.66.63,7.22,2a6.2,6.2,0,0,1,2,4.74,6.54,6.54,0,0,1-4.7,6.36v.11c1.92.67,3.07,2.44,3.66,5a39.88,39.88,0,0,0,1.93,6.85h-3.33a32.43,32.43,0,0,1-1.67-6c-.74-3.44-2.07-4.73-5-4.84h-3v10.8H195.7ZM198.92,780h3.3c3.44,0,5.62-1.88,5.62-4.73,0-3.22-2.33-4.63-5.73-4.67a13.13,13.13,0,0,0-3.19.3Z" transform="translate(-109.5 -110.36)"/><path class="b" d="M231.85,784.18c0,6.62-4.58,9.51-8.91,9.51-4.85,0-8.59-3.55-8.59-9.22,0-6,3.92-9.51,8.88-9.51C228.38,775,231.85,778.7,231.85,784.18Zm-14.21.18c0,3.93,2.26,6.89,5.44,6.89s5.44-2.93,5.44-7c0-3-1.51-6.88-5.36-6.88S217.64,781,217.64,784.36Z" transform="translate(-109.5 -110.36)"/><path class="b" d="M252.17,784.18c0,6.62-4.59,9.51-8.92,9.51-4.85,0-8.59-3.55-8.59-9.22,0-6,3.93-9.51,8.88-9.51C248.69,775,252.17,778.7,252.17,784.18Zm-14.21.18c0,3.93,2.25,6.89,5.44,6.89s5.44-2.93,5.44-7c0-3-1.52-6.88-5.37-6.88S238,781,238,784.36Z" transform="translate(-109.5 -110.36)"/><path class="b" d="M256.27,780.22c0-1.85,0-3.37-.15-4.85H259l.15,2.89h.11a6.19,6.19,0,0,1,5.63-3.3,5.3,5.3,0,0,1,5.07,3.59H270a7.49,7.49,0,0,1,2-2.33,6.14,6.14,0,0,1,4-1.26c2.37,0,5.88,1.56,5.88,7.77v10.55h-3.18V783.14c0-3.44-1.26-5.51-3.89-5.51a4.2,4.2,0,0,0-3.84,3,5.3,5.3,0,0,0-.26,1.63v11.06h-3.19V782.55c0-2.85-1.25-4.92-3.73-4.92a4.46,4.46,0,0,0-4,3.25,4.67,4.67,0,0,0-.26,1.6v10.8h-3.18Z" transform="translate(-109.5 -110.36)"/><path class="b" d="M304.67,792.47a16,16,0,0,1-6.59,1.18c-7,0-12.32-4.44-12.32-12.62,0-7.8,5.29-13.1,13-13.1a13.45,13.45,0,0,1,5.92,1.11l-.78,2.63a11.74,11.74,0,0,0-5-1c-5.85,0-9.73,3.74-9.73,10.29,0,6.11,3.51,10,9.58,10a12.83,12.83,0,0,0,5.25-1Z" transform="translate(-109.5 -110.36)"/><path class="b" d="M324.39,784.18c0,6.62-4.59,9.51-8.92,9.51-4.84,0-8.58-3.55-8.58-9.22,0-6,3.92-9.51,8.88-9.51C320.91,775,324.39,778.7,324.39,784.18Zm-14.21.18c0,3.93,2.26,6.89,5.44,6.89s5.44-2.93,5.44-7c0-3-1.52-6.88-5.37-6.88S310.18,781,310.18,784.36Z" transform="translate(-109.5 -110.36)"/><path class="b" d="M328.5,780.22c0-1.85,0-3.37-.15-4.85h2.85l.15,2.89h.11a6.18,6.18,0,0,1,5.62-3.3,5.3,5.3,0,0,1,5.07,3.59h.07a7.49,7.49,0,0,1,2-2.33,6.16,6.16,0,0,1,4-1.26c2.37,0,5.88,1.56,5.88,7.77v10.55h-3.18V783.14c0-3.44-1.26-5.51-3.88-5.51a4.21,4.21,0,0,0-3.85,3,5.3,5.3,0,0,0-.26,1.63v11.06h-3.18V782.55c0-2.85-1.26-4.92-3.74-4.92a4.85,4.85,0,0,0-4.29,4.85v10.8H328.5Z" transform="translate(-109.5 -110.36)"/><path class="b" d="M359.35,781.22c0-2.3-.07-4.15-.14-5.85h2.92l.15,3.07h.07a7,7,0,0,1,6.37-3.48c4.32,0,7.58,3.67,7.58,9.11,0,6.43-3.92,9.62-8.14,9.62a6.28,6.28,0,0,1-5.51-2.81h-.08v9.73h-3.22Zm3.22,4.77a7.61,7.61,0,0,0,.15,1.33,5,5,0,0,0,4.89,3.81c3.44,0,5.43-2.81,5.43-6.92,0-3.58-1.88-6.66-5.32-6.66a5.2,5.2,0,0,0-4.92,4,5,5,0,0,0-.23,1.33Z" transform="translate(-109.5 -110.36)"/><path class="b" d="M396.61,784.18c0,6.62-4.59,9.51-8.91,9.51-4.85,0-8.59-3.55-8.59-9.22,0-6,3.92-9.51,8.88-9.51C393.14,775,396.61,778.7,396.61,784.18Zm-14.21.18c0,3.93,2.26,6.89,5.44,6.89s5.44-2.93,5.44-7c0-3-1.51-6.88-5.36-6.88S382.4,781,382.4,784.36Z" transform="translate(-109.5 -110.36)"/><path class="b" d="M400.72,780.22c0-1.85,0-3.37-.15-4.85h2.89l.18,3h.08a6.58,6.58,0,0,1,5.92-3.37c2.48,0,6.32,1.48,6.32,7.63v10.69h-3.25V783c0-2.89-1.08-5.29-4.15-5.29a4.77,4.77,0,0,0-4.58,4.84v10.77h-3.26Z" transform="translate(-109.5 -110.36)"/><path class="b" d="M423.07,784.92c.07,4.4,2.88,6.21,6.14,6.21a11.76,11.76,0,0,0,5-.92l.55,2.33a14.44,14.44,0,0,1-6,1.11c-5.52,0-8.81-3.63-8.81-9s3.18-9.66,8.4-9.66c5.84,0,7.4,5.15,7.4,8.44a11.85,11.85,0,0,1-.11,1.52Zm9.54-2.33c0-2.08-.85-5.29-4.51-5.29-3.29,0-4.74,3-5,5.29Z" transform="translate(-109.5 -110.36)"/><path class="b" d="M439.79,780.22c0-1.85,0-3.37-.15-4.85h2.89l.18,3h.08a6.59,6.59,0,0,1,5.92-3.37c2.48,0,6.33,1.48,6.33,7.63v10.69h-3.26V783c0-2.89-1.07-5.29-4.14-5.29a4.77,4.77,0,0,0-4.59,4.84v10.77h-3.26Z" transform="translate(-109.5 -110.36)"/><path class="b" d="M464.1,770.23v5.14h4.66v2.48H464.1v9.66c0,2.22.63,3.48,2.44,3.48a6.85,6.85,0,0,0,1.89-.23l.15,2.45a8,8,0,0,1-2.89.44,4.48,4.48,0,0,1-3.51-1.37c-.93-1-1.26-2.55-1.26-4.66v-9.77h-2.78v-2.48h2.78v-4.29Z" transform="translate(-109.5 -110.36)"/><path class="b" d="M112,660l5.58-14.51h1.36L113.29,660Z" transform="translate(-109.5 -110.36)"/><path class="b" d="M120.29,652.13c0-1,0-1.82-.08-2.62h1.56l.1,1.6h0a3.56,3.56,0,0,1,3.2-1.82c1.34,0,3.42.8,3.42,4.12v5.78h-1.76v-5.58c0-1.56-.58-2.86-2.24-2.86a2.5,2.5,0,0,0-2.36,1.8,2.53,2.53,0,0,0-.12.82v5.82h-1.76Z" transform="translate(-109.5 -110.36)"/><path class="b" d="M132.37,654.67a3.1,3.1,0,0,0,3.32,3.36,6.36,6.36,0,0,0,2.68-.5l.3,1.26a7.84,7.84,0,0,1-3.22.6c-3,0-4.76-2-4.76-4.88s1.72-5.22,4.54-5.22c3.16,0,4,2.78,4,4.56a6.64,6.64,0,0,1-.06.82Zm5.16-1.26c0-1.12-.46-2.86-2.44-2.86-1.78,0-2.56,1.64-2.7,2.86Z" transform="translate(-109.5 -110.36)"/><path class="b" d="M142.11,649.51l1.28,4.92c.28,1.08.54,2.08.72,3.08h.06c.22-1,.54-2,.86-3.06l1.58-4.94h1.48l1.5,4.84c.36,1.16.64,2.18.86,3.16h.06a29.11,29.11,0,0,1,.74-3.14l1.38-4.86h1.74l-3.12,9.68h-1.6l-1.48-4.62a32.26,32.26,0,0,1-.86-3.18h0a28.64,28.64,0,0,1-.88,3.2l-1.56,4.6h-1.6l-2.92-9.68Z" transform="translate(-109.5 -110.36)"/><path class="b" d="M156.13,652.53c0-1.14,0-2.12-.08-3h1.54l.06,1.9h.08a2.9,2.9,0,0,1,2.68-2.12,1.9,1.9,0,0,1,.5.06V651a2.64,2.64,0,0,0-.6-.06,2.47,2.47,0,0,0-2.36,2.26,5,5,0,0,0-.08.82v5.16h-1.74Z" transform="translate(-109.5 -110.36)"/><path class="b" d="M171.23,654.27c0,3.58-2.48,5.14-4.82,5.14-2.62,0-4.64-1.92-4.64-5,0-3.24,2.12-5.14,4.8-5.14S171.23,651.31,171.23,654.27Zm-7.68.1c0,2.12,1.22,3.72,2.94,3.72s2.94-1.58,2.94-3.76c0-1.64-.82-3.72-2.9-3.72S163.55,652.53,163.55,654.37Z" transform="translate(-109.5 -110.36)"/><path class="b" d="M182.21,654.27c0,3.58-2.48,5.14-4.82,5.14-2.62,0-4.64-1.92-4.64-5,0-3.24,2.12-5.14,4.8-5.14S182.21,651.31,182.21,654.27Zm-7.68.1c0,2.12,1.22,3.72,2.94,3.72s2.94-1.58,2.94-3.76c0-1.64-.82-3.72-2.9-3.72S174.53,652.53,174.53,654.37Z" transform="translate(-109.5 -110.36)"/><path class="b" d="M184.43,652.13c0-1,0-1.82-.08-2.62h1.54l.08,1.56H186a3.34,3.34,0,0,1,3-1.78,2.86,2.86,0,0,1,2.74,1.94h0a4,4,0,0,1,1.08-1.26,3.3,3.3,0,0,1,2.14-.68c1.28,0,3.18.84,3.18,4.2v5.7h-1.72v-5.48c0-1.86-.68-3-2.1-3a2.28,2.28,0,0,0-2.08,1.6,2.9,2.9,0,0,0-.14.88v6h-1.72v-5.8c0-1.54-.68-2.66-2-2.66a2.62,2.62,0,0,0-2.32,2.62v5.84h-1.72Z" transform="translate(-109.5 -110.36)"/><ellipse class="f" cx="850.25" cy="474.39" rx="171.75" ry="60.75"/><path class="b" d="M846.49,570.77h13.07v2.63h-9.93v8.06h9.17v2.59h-9.17v11h-3.14Z" transform="translate(-109.5 -110.36)"/><path class="b" d="M866.51,572.71a2,2,0,0,1-3.92,0,1.94,1.94,0,0,1,2-2A1.88,1.88,0,0,1,866.51,572.71ZM863,595V577.61h3.17V595Z" transform="translate(-109.5 -110.36)"/><path class="b" d="M871.41,583c0-2,0-3.81-.15-5.43H874l.11,3.42h.15a5.23,5.23,0,0,1,4.82-3.82,3.52,3.52,0,0,1,.9.11v3a4.85,4.85,0,0,0-1.08-.11c-2.23,0-3.82,1.69-4.25,4.07a9.06,9.06,0,0,0-.14,1.47V595h-3.13Z" transform="translate(-109.5 -110.36)"/><path class="b" d="M884.58,586.9c.07,4.28,2.81,6,6,6a11.34,11.34,0,0,0,4.82-.9l.54,2.27a14.13,14.13,0,0,1-5.79,1.08c-5.37,0-8.57-3.53-8.57-8.78s3.09-9.4,8.17-9.4c5.69,0,7.2,5,7.2,8.21a11.26,11.26,0,0,1-.11,1.48Zm9.29-2.27c0-2-.83-5.15-4.39-5.15-3.21,0-4.61,2.95-4.86,5.15Z" transform="translate(-109.5 -110.36)"/><path class="b" d="M900.71,595c.07-1.19.14-2.95.14-4.5V569.47H904v10.95h.07a6.47,6.47,0,0,1,5.94-3.21c4.32,0,7.38,3.6,7.34,8.89,0,6.23-3.92,9.33-7.81,9.33a6.21,6.21,0,0,1-5.83-3.28h-.11l-.14,2.88Zm3.28-7a6.13,6.13,0,0,0,.14,1.15,4.9,4.9,0,0,0,4.75,3.71c3.31,0,5.29-2.7,5.29-6.7,0-3.49-1.8-6.48-5.18-6.48a5,5,0,0,0-4.82,3.89,5.74,5.74,0,0,0-.18,1.3Z" transform="translate(-109.5 -110.36)"/><path class="b" d="M931,595l-.25-2.2h-.1a6.51,6.51,0,0,1-5.33,2.6,5,5,0,0,1-5.33-5c0-4.21,3.74-6.51,10.47-6.48v-.36c0-1.44-.39-4-4-4a8.71,8.71,0,0,0-4.54,1.3l-.72-2.09a10.78,10.78,0,0,1,5.72-1.55c5.33,0,6.63,3.64,6.63,7.13v6.52a25.18,25.18,0,0,0,.28,4.17Zm-.46-8.89c-3.46-.07-7.38.54-7.38,3.92a2.81,2.81,0,0,0,3,3,4.34,4.34,0,0,0,4.21-2.92,3.52,3.52,0,0,0,.18-1Z" transform="translate(-109.5 -110.36)"/><path class="b" d="M938.26,591.79a8.29,8.29,0,0,0,4.17,1.26c2.31,0,3.39-1.15,3.39-2.59s-.9-2.34-3.24-3.2c-3.13-1.12-4.61-2.85-4.61-4.94,0-2.8,2.27-5.11,6-5.11a8.75,8.75,0,0,1,4.28,1.08l-.79,2.31a6.68,6.68,0,0,0-3.56-1c-1.87,0-2.92,1.08-2.92,2.37s1,2.09,3.32,3c3,1.15,4.57,2.66,4.57,5.25,0,3.06-2.38,5.22-6.52,5.22a9.9,9.9,0,0,1-4.89-1.19Z" transform="translate(-109.5 -110.36)"/><path class="b" d="M954.71,586.9c.07,4.28,2.81,6,6,6a11.39,11.39,0,0,0,4.83-.9l.54,2.27a14.23,14.23,0,0,1-5.8,1.08c-5.36,0-8.56-3.53-8.56-8.78s3.09-9.4,8.17-9.4c5.68,0,7.2,5,7.2,8.21a13.35,13.35,0,0,1-.11,1.48Zm9.29-2.27c0-2-.83-5.15-4.4-5.15-3.2,0-4.6,2.95-4.85,5.15Z" transform="translate(-109.5 -110.36)"/><path class="b" d="M970.66,591.21a11,11,0,0,0,5.61,1.59c3.21,0,5.08-1.69,5.08-4.14,0-2.27-1.3-3.56-4.57-4.82-4-1.41-6.41-3.46-6.41-6.88,0-3.78,3.13-6.59,7.85-6.59a11,11,0,0,1,5.36,1.19l-.86,2.56a9.73,9.73,0,0,0-4.61-1.16c-3.31,0-4.57,2-4.57,3.64,0,2.27,1.47,3.38,4.82,4.68,4.1,1.58,6.19,3.56,6.19,7.13,0,3.74-2.77,7-8.49,7a12.45,12.45,0,0,1-6.19-1.55Z" transform="translate(-109.5 -110.36)"/><path class="b" d="M990.71,586.9c.07,4.28,2.81,6,6,6a11.39,11.39,0,0,0,4.83-.9l.54,2.27a14.23,14.23,0,0,1-5.8,1.08c-5.36,0-8.56-3.53-8.56-8.78s3.09-9.4,8.17-9.4c5.68,0,7.2,5,7.2,8.21a13.35,13.35,0,0,1-.11,1.48Zm9.29-2.27c0-2-.83-5.15-4.4-5.15-3.2,0-4.6,2.95-4.85,5.15Z" transform="translate(-109.5 -110.36)"/><path class="b" d="M1007,583c0-2,0-3.81-.14-5.43h2.77l.11,3.42h.14a5.23,5.23,0,0,1,4.82-3.82,3.46,3.46,0,0,1,.9.11v3a4.79,4.79,0,0,0-1.08-.11c-2.23,0-3.81,1.69-4.24,4.07a8,8,0,0,0-.15,1.47V595H1007Z" transform="translate(-109.5 -110.36)"/><path class="b" d="M1020.88,577.61l3.42,9.79a46,46,0,0,1,1.4,4.46h.11c.39-1.44.9-2.88,1.47-4.46l3.39-9.79H1034L1027.14,595h-3l-6.63-17.42Z" transform="translate(-109.5 -110.36)"/><path class="b" d="M1040.5,572.71a2,2,0,0,1-3.93,0,1.94,1.94,0,0,1,2-2A1.89,1.89,0,0,1,1040.5,572.71ZM1037,595V577.61h3.16V595Z" transform="translate(-109.5 -110.36)"/><path class="b" d="M1057.81,594.38a11.68,11.68,0,0,1-5,1c-5.26,0-8.68-3.56-8.68-8.89s3.67-9.25,9.36-9.25a10.6,10.6,0,0,1,4.39.9l-.72,2.45a7.23,7.23,0,0,0-3.67-.83c-4,0-6.16,3-6.16,6.59,0,4,2.6,6.51,6.05,6.51a9.11,9.11,0,0,0,3.89-.86Z" transform="translate(-109.5 -110.36)"/><path class="b" d="M1063.07,586.9c.07,4.28,2.81,6,6,6a11.39,11.39,0,0,0,4.83-.9l.54,2.27a14.23,14.23,0,0,1-5.8,1.08c-5.36,0-8.57-3.53-8.57-8.78s3.1-9.4,8.17-9.4c5.69,0,7.2,5,7.2,8.21a13.88,13.88,0,0,1-.1,1.48Zm9.28-2.27c0-2-.82-5.15-4.39-5.15-3.2,0-4.6,2.95-4.86,5.15Z" transform="translate(-109.5 -110.36)"/><ellipse class="f" cx="850.97" cy="316" rx="171.75" ry="60.75"/><path class="b" d="M866.47,412.37h3.14V434H880v2.62h-13.5Z" transform="translate(-109.5 -110.36)"/><path class="b" d="M898.62,427.78c0,6.44-4.46,9.25-8.67,9.25-4.72,0-8.36-3.46-8.36-9,0-5.84,3.82-9.25,8.64-9.25C895.24,418.82,898.62,422.45,898.62,427.78ZM884.8,428c0,3.81,2.19,6.69,5.29,6.69s5.29-2.84,5.29-6.76c0-3-1.48-6.7-5.22-6.7S884.8,424.65,884.8,428Z" transform="translate(-109.5 -110.36)"/><path class="b" d="M915,436a11.77,11.77,0,0,1-5,1c-5.25,0-8.67-3.56-8.67-8.89s3.67-9.25,9.36-9.25a10.64,10.64,0,0,1,4.39.9l-.72,2.45a7.39,7.39,0,0,0-3.67-.83c-4,0-6.16,2.95-6.16,6.59,0,4,2.59,6.51,6.05,6.51a9,9,0,0,0,3.89-.86Z" transform="translate(-109.5 -110.36)"/><path class="b" d="M928.39,436.63l-.25-2.19H928a6.47,6.47,0,0,1-5.32,2.59,5,5,0,0,1-5.33-5c0-4.22,3.74-6.52,10.47-6.48v-.36c0-1.44-.39-4-4-4a8.66,8.66,0,0,0-4.53,1.29l-.72-2.09a10.87,10.87,0,0,1,5.72-1.54c5.33,0,6.62,3.63,6.62,7.12v6.52a25,25,0,0,0,.29,4.17Zm-.47-8.89c-3.45-.07-7.37.54-7.37,3.93a2.8,2.8,0,0,0,3,3,4.32,4.32,0,0,0,4.21-2.92,3.2,3.2,0,0,0,.18-1Z" transform="translate(-109.5 -110.36)"/><path class="b" d="M936.1,411.08h3.17v25.55H936.1Z" transform="translate(-109.5 -110.36)"/><path class="b" d="M944.27,432.82a11.1,11.1,0,0,0,5.61,1.58c3.21,0,5.08-1.69,5.08-4.14,0-2.27-1.3-3.56-4.57-4.82-4-1.41-6.41-3.46-6.41-6.88,0-3.78,3.13-6.58,7.85-6.58a11.06,11.06,0,0,1,5.36,1.18l-.86,2.56a9.68,9.68,0,0,0-4.61-1.15c-3.31,0-4.57,2-4.57,3.63,0,2.27,1.47,3.39,4.82,4.68,4.11,1.59,6.19,3.57,6.19,7.13,0,3.74-2.77,7-8.49,7a12.56,12.56,0,0,1-6.19-1.54Z" transform="translate(-109.5 -110.36)"/><path class="b" d="M966.05,414.21v5h4.53v2.41h-4.53V431c0,2.16.61,3.38,2.37,3.38a7.53,7.53,0,0,0,1.84-.21l.14,2.37a7.76,7.76,0,0,1-2.8.43,4.35,4.35,0,0,1-3.42-1.33c-.9-.93-1.23-2.48-1.23-4.53v-9.51h-2.7v-2.41H963V415Z" transform="translate(-109.5 -110.36)"/><path class="b" d="M989.7,427.78c0,6.44-4.46,9.25-8.68,9.25-4.71,0-8.35-3.46-8.35-9,0-5.84,3.82-9.25,8.64-9.25C986.32,418.82,989.7,422.45,989.7,427.78Zm-13.82.18c0,3.81,2.19,6.69,5.29,6.69s5.29-2.84,5.29-6.76c0-3-1.48-6.7-5.22-6.7S975.88,424.65,975.88,428Z" transform="translate(-109.5 -110.36)"/><path class="b" d="M993.7,424.65c0-2,0-3.82-.15-5.44h2.77l.11,3.42h.15a5.22,5.22,0,0,1,4.82-3.81,3.54,3.54,0,0,1,.9.1v3a4.85,4.85,0,0,0-1.08-.11c-2.23,0-3.82,1.7-4.25,4.07a9.19,9.19,0,0,0-.14,1.48v9.28H993.7Z" transform="translate(-109.5 -110.36)"/><path class="b" d="M1014.94,436.63l-.26-2.19h-.1a6.5,6.5,0,0,1-5.33,2.59,5,5,0,0,1-5.33-5c0-4.22,3.74-6.52,10.48-6.48v-.36c0-1.44-.4-4-4-4a8.73,8.73,0,0,0-4.54,1.29l-.72-2.09a10.87,10.87,0,0,1,5.72-1.54c5.33,0,6.63,3.63,6.63,7.12v6.52a24,24,0,0,0,.29,4.17Zm-.47-8.89c-3.46-.07-7.38.54-7.38,3.93a2.8,2.8,0,0,0,3,3,4.34,4.34,0,0,0,4.21-2.92,3.2,3.2,0,0,0,.18-1Z" transform="translate(-109.5 -110.36)"/><path class="b" d="M1037.65,419.21c-.07,1.26-.14,2.67-.14,4.79v10.11c0,4-.8,6.45-2.49,8a9.25,9.25,0,0,1-6.33,2.09,11.33,11.33,0,0,1-5.8-1.44l.79-2.42a9.88,9.88,0,0,0,5.12,1.37c3.24,0,5.61-1.69,5.61-6.08v-1.94h-.07a6.21,6.21,0,0,1-5.54,2.91c-4.32,0-7.42-3.67-7.42-8.49,0-5.91,3.85-9.25,7.85-9.25a5.78,5.78,0,0,1,5.43,3h.07l.15-2.63Zm-3.27,6.88a4.62,4.62,0,0,0-.18-1.44,4.57,4.57,0,0,0-4.43-3.35c-3,0-5.19,2.55-5.19,6.59,0,3.42,1.73,6.26,5.15,6.26a4.62,4.62,0,0,0,4.39-3.24,5.51,5.51,0,0,0,.26-1.69Z" transform="translate(-109.5 -110.36)"/><path class="b" d="M1044.53,428.5c.07,4.28,2.81,6.05,6,6.05a11.55,11.55,0,0,0,4.83-.9l.54,2.26a14.06,14.06,0,0,1-5.8,1.08c-5.36,0-8.57-3.52-8.57-8.78s3.1-9.39,8.18-9.39c5.68,0,7.2,5,7.2,8.2a13.35,13.35,0,0,1-.11,1.48Zm9.29-2.27c0-2-.83-5.15-4.4-5.15-3.2,0-4.6,2.95-4.86,5.15Z" transform="translate(-109.5 -110.36)"/><line class="g" x1="384.77" y1="180.95" x2="679.5" y2="293.64"/><path class="h" d="M483,287c4.55,4,9.85,9.87,12.57,15l.18-10.11,6.61-7.66C496.92,286.22,489.06,287.06,483,287Z" transform="translate(-109.5 -110.36)"/><line class="g" x1="383.5" y1="656.64" x2="667.86" y2="504.34"/><path class="h" d="M788,609c-4,4.54-8.53,11-10.58,16.46l-1.46-10-7.52-6.76C774.09,610,782,609.83,788,609Z" transform="translate(-109.5 -110.36)"/><line class="g" x1="1339.57" y1="420.46" x2="1041.43" y2="465.83"/><path class="h" d="M1461,529c-5.93-1.23-13.44-3.72-18.33-6.83l4.83,8.88-2,9.92C1449.28,536.55,1455.7,531.94,1461,529Z" transform="translate(-109.5 -110.36)"/><path class="h" d="M1139,578c5.3-2.94,11.72-7.55,15.47-12l-2,9.93,4.83,8.88C1152.44,581.72,1144.93,579.23,1139,578Z" transform="translate(-109.5 -110.36)"/><line class="g" x1="380.5" y1="635.64" x2="670.76" y2="358.97"/><path class="h" d="M789,461c-2.66,5.44-5.28,12.91-5.81,18.68l-4.07-9.26-9.06-4.51C775.85,465.65,783.44,463.39,789,461Z" transform="translate(-109.5 -110.36)"/><path class="i" d="M612.35,701l-6.47-11.83,1.67-.91,7.06,3.92a38,38,0,0,1,4.23,2.68l0,0c-1-1.5-1.82-2.92-2.83-4.76l-2.7-4.95,1.44-.79,6.46,11.83-1.55.85-7-4a40.79,40.79,0,0,1-4.37-2.74l0,.05c.9,1.44,1.71,2.85,2.78,4.81l2.77,5.06Z" transform="translate(-109.5 -110.36)"/><path class="i" d="M622.54,690.26a3.1,3.1,0,0,0,4.52,1.36,6.24,6.24,0,0,0,2.11-1.73l.87,1a7.8,7.8,0,0,1-2.54,2.08c-2.61,1.42-5.12.56-6.52-2s-1-5.4,1.49-6.76c2.77-1.51,4.84.53,5.69,2.09a4.64,4.64,0,0,1,.34.75Zm3.92-3.58c-.52-1-1.77-2.29-3.51-1.34-1.56.85-1.46,2.66-1,3.8Z" transform="translate(-109.5 -110.36)"/><path class="i" d="M628.61,681.06l3.48,3.71c.77.81,1.47,1.56,2.11,2.35l0,0c-.27-1-.49-2-.71-3.09l-1-5.1,1.3-.71,3.64,3.53c.87.85,1.6,1.61,2.27,2.36l.05,0a30,30,0,0,1-.86-3.12L637.84,676l1.53-.84,1.9,10-1.4.76-3.51-3.34a32.12,32.12,0,0,1-2.28-2.38l0,0a27.29,27.29,0,0,1,.76,3.23l.84,4.78-1.41.77-7.2-7.1Z" transform="translate(-109.5 -110.36)"/><path class="i" d="M646.08,675c-.54-1-1-1.85-1.51-2.61l1.35-.74,1,1.64.07,0a2.91,2.91,0,0,1,1.34-3.15,2.07,2.07,0,0,1,.46-.18l.8,1.45a2.3,2.3,0,0,0-.55.24,2.45,2.45,0,0,0-1,3.11,5.19,5.19,0,0,0,.32.76L650.8,680l-1.52.84Z" transform="translate(-109.5 -110.36)"/><path class="i" d="M660.17,669.25c1.72,3.14.29,5.7-1.77,6.82-2.29,1.26-5,.54-6.46-2.15s-.6-5.52,1.75-6.81S658.75,666.65,660.17,669.25ZM653.48,673c1,1.86,2.85,2.68,4.36,1.85s1.83-2.79.78-4.71c-.79-1.44-2.5-2.87-4.33-1.87S652.6,671.4,653.48,673Z" transform="translate(-109.5 -110.36)"/><path class="i" d="M669.81,664c1.72,3.14.29,5.7-1.77,6.82-2.3,1.25-5,.54-6.46-2.15s-.6-5.53,1.75-6.81S668.39,661.39,669.81,664Zm-6.7,3.76c1,1.87,2.86,2.69,4.37,1.86s1.82-2.8.78-4.71c-.79-1.44-2.51-2.87-4.33-1.87S662.23,666.14,663.11,667.75Z" transform="translate(-109.5 -110.36)"/><path class="i" d="M670.73,661c-.48-.87-.89-1.58-1.33-2.26l1.35-.74.82,1.34.06,0a3.32,3.32,0,0,1,1.81-3,2.87,2.87,0,0,1,3.34.38h0a4.26,4.26,0,0,1,.34-1.63,3.33,3.33,0,0,1,1.56-1.62c1.12-.61,3.19-.79,4.8,2.16l2.73,5-1.51.82-2.62-4.81c-.89-1.63-2-2.29-3.27-1.61a2.27,2.27,0,0,0-1.06,2.4,2.59,2.59,0,0,0,.3.84l2.86,5.25-1.51.83-2.78-5.09c-.74-1.36-1.87-2-3-1.37a2.42,2.42,0,0,0-1.07,2.59,2.6,2.6,0,0,0,.29.82l2.8,5.13-1.51.82Z" transform="translate(-109.5 -110.36)"/><path class="i" d="M609,627.62l-12.45-6.79,1.37-1.29,6.09,3.39c1.67.93,3.16,1.78,4.5,2.68l0,0c-.79-1.39-1.55-3-2.32-4.71l-2.91-6.41,1.35-1.27,5.74,13.11Z" transform="translate(-109.5 -110.36)"/><path class="i" d="M607.58,611.89a1.09,1.09,0,0,1-1.58,1.49,1.07,1.07,0,0,1,0-1.55A1,1,0,0,1,607.58,611.89Zm7.08,10.37-6.64-7L609.3,614l6.65,7Z" transform="translate(-109.5 -110.36)"/><path class="i" d="M616.66,617.9a4.66,4.66,0,0,0,2.17-1.08c.93-.88.93-1.76.38-2.34s-1.26-.6-2.53-.06c-1.69.74-2.95.61-3.74-.24-1.07-1.13-1-2.93.48-4.36a4.85,4.85,0,0,1,2.14-1.19l.56,1.23a3.91,3.91,0,0,0-1.83.95,1.42,1.42,0,0,0-.27,2.07c.55.59,1.22.45,2.47-.06,1.66-.69,2.86-.67,3.85.38,1.16,1.24,1,3-.65,4.59a5.53,5.53,0,0,1-2.43,1.39Z" transform="translate(-109.5 -110.36)"/><path class="i" d="M616.75,603.25a1,1,0,0,1-.07,1.55,1,1,0,0,1-1.51-.06,1.07,1.07,0,0,1,0-1.55A1,1,0,0,1,616.75,603.25Zm7.08,10.37-6.64-7,1.28-1.21,6.64,7Z" transform="translate(-109.5 -110.36)"/><path class="i" d="M620.23,599.88l1.91,2,1.83-1.73.92,1-1.83,1.73,3.58,3.8c.82.87,1.54,1.13,2.25.46a3.75,3.75,0,0,0,.66-.78l1,.9a4.43,4.43,0,0,1-1,1.25,2.43,2.43,0,0,1-1.89.76,3.56,3.56,0,0,1-2.22-1.37l-3.62-3.84-1.09,1-.92-1,1.09-1-1.59-1.68Z" transform="translate(-109.5 -110.36)"/><path class="i" d="M629.58,602a3.09,3.09,0,0,0,4.72.17,6.29,6.29,0,0,0,1.61-2.2l1.08.71a7.88,7.88,0,0,1-1.93,2.65c-2.17,2-4.81,1.84-6.81-.29s-2.33-5-.28-6.91c2.3-2.17,4.82-.72,6,.57a5.63,5.63,0,0,1,.52.64Zm2.89-4.45c-.75-.83-2.29-1.77-3.74-.41-1.29,1.22-.73,3,0,3.93Z" transform="translate(-109.5 -110.36)"/><path class="i" d="M635.6,583l8,8.52c.59.62,1.28,1.32,1.77,1.76l-1.15,1.09L643,593.2l0,0a3.59,3.59,0,0,1-1.1,3.65c-1.7,1.6-4.37,1.39-6.38-.75-2.23-2.33-2.13-5.14-.41-6.76a3.23,3.23,0,0,1,3.14-.92l0,0-4-4.21Zm4.53,7.37a3.78,3.78,0,0,0-.57-.49,2.61,2.61,0,0,0-3.25.26c-1.32,1.25-1,3.16.46,4.71s3.15,1.95,4.53.65a2.65,2.65,0,0,0,.44-3.3,2.88,2.88,0,0,0-.46-.61Z" transform="translate(-109.5 -110.36)"/><path class="i" d="M646,583.58c-.78-.83-1.46-1.53-2.13-2.14l1.12-1.06,1.35,1.34.06-.05a2.9,2.9,0,0,1,.5-3.38,1.74,1.74,0,0,1,.4-.3l1.14,1.21a2.72,2.72,0,0,0-.48.36,2.47,2.47,0,0,0-.16,3.27,4.37,4.37,0,0,0,.5.65l3.54,3.76-1.27,1.19Z" transform="translate(-109.5 -110.36)"/><path class="i" d="M658.17,574.49a4.74,4.74,0,0,1,0,7c-1.91,1.79-4.7,1.78-6.8-.44s-2-5.2,0-7S656.14,572.33,658.17,574.49Zm-5.52,5.34c1.45,1.54,3.44,1.87,4.69.69s1-3.17-.44-4.75c-1.13-1.2-3.15-2.15-4.66-.72S651.38,578.49,652.65,579.83Z" transform="translate(-109.5 -110.36)"/><path class="i" d="M666.16,567a4.74,4.74,0,0,1,0,7c-1.91,1.79-4.7,1.78-6.8-.45s-2-5.19,0-7S664.13,564.8,666.16,567Zm-5.52,5.34c1.45,1.54,3.44,1.87,4.69.69s1-3.17-.44-4.75c-1.13-1.2-3.15-2.15-4.67-.72S659.37,571,660.64,572.3Z" transform="translate(-109.5 -110.36)"/><path class="i" d="M666.3,563.88c-.68-.73-1.26-1.31-1.85-1.85l1.12-1.06,1.13,1.08,0,0a3.34,3.34,0,0,1,1-3.38,2.86,2.86,0,0,1,3.33-.47l0,0a3.76,3.76,0,0,1-.08-1.65,3.31,3.31,0,0,1,1.09-2c.93-.88,2.89-1.57,5.19.88l3.92,4.15L680,560.72l-3.76-4c-1.27-1.36-2.54-1.7-3.57-.73a2.26,2.26,0,0,0-.41,2.59,2.84,2.84,0,0,0,.5.74l4.1,4.35-1.25,1.18-4-4.22c-1.06-1.12-2.32-1.47-3.3-.55a2.41,2.41,0,0,0-.38,2.78,2.79,2.79,0,0,0,.49.72l4,4.25L671.15,569Z" transform="translate(-109.5 -110.36)"/><path class="i" d="M613.4,332.27l.84-14.16,1.75.69-.48,6.95c-.12,1.9-.26,3.61-.5,5.21l0,0c.92-1.31,2.07-2.69,3.27-4.11l4.56-5.37,1.73.69L615.19,333Z" transform="translate(-109.5 -110.36)"/><path class="i" d="M620.68,335.13l3.54-9,1.64.64-3.54,9ZM627,324.3a1,1,0,0,1-1.44.6,1.06,1.06,0,0,1-.59-1.4,1.08,1.08,0,0,1,1.43-.62A1.05,1.05,0,0,1,627,324.3Z" transform="translate(-109.5 -110.36)"/><path class="i" d="M625.47,335.08a4.64,4.64,0,0,0,1.9,1.5c1.19.47,2,.09,2.28-.65s0-1.4-1-2.32c-1.4-1.21-1.81-2.41-1.38-3.49.57-1.45,2.21-2.18,4.14-1.42a4.89,4.89,0,0,1,2,1.43l-.88,1a3.74,3.74,0,0,0-1.64-1.24,1.41,1.41,0,0,0-2,.63c-.29.75.12,1.29,1.12,2.2,1.33,1.21,1.82,2.31,1.29,3.65-.62,1.58-2.29,2.22-4.43,1.37a5.46,5.46,0,0,1-2.29-1.61Z" transform="translate(-109.5 -110.36)"/><path class="i" d="M632.4,339.74l3.55-9,1.64.64-3.55,9Zm6.37-10.83a1.09,1.09,0,0,1-2-.79,1.07,1.07,0,0,1,1.43-.62A1,1,0,0,1,638.77,328.91Z" transform="translate(-109.5 -110.36)"/><path class="i" d="M643.29,330.63l-1,2.59,2.34.92-.49,1.25-2.34-.93-1.91,4.86c-.44,1.12-.38,1.88.54,2.24a3.92,3.92,0,0,0,1,.26l-.41,1.26a4.41,4.41,0,0,1-1.54-.35,2.47,2.47,0,0,1-1.5-1.39,3.59,3.59,0,0,1,.29-2.59l1.93-4.92-1.39-.54.49-1.25,1.4.55.84-2.16Z" transform="translate(-109.5 -110.36)"/><path class="i" d="M645.38,340a3.11,3.11,0,0,0,1.86,4.35,6.33,6.33,0,0,0,2.67.51l-.18,1.28a7.66,7.66,0,0,1-3.22-.62c-2.77-1.09-3.71-3.56-2.64-6.28S647.38,335,650,336c2.94,1.16,2.7,4.05,2,5.71a6.84,6.84,0,0,1-.35.74Zm5.26.72c.43-1,.62-2.83-1.22-3.56a2.91,2.91,0,0,0-3.56,1.68Z" transform="translate(-109.5 -110.36)"/><path class="i" d="M665.11,337.34l-4.28,10.89c-.31.8-.65,1.72-.84,2.36l-1.47-.58.54-1.59,0,0a3.58,3.58,0,0,1-3.77.56c-2.17-.85-3.12-3.36-2-6.09,1.16-3,3.75-4.12,5.95-3.26a3.25,3.25,0,0,1,2.17,2.45l0,0,2.11-5.38Zm-4.73,7.23a3.32,3.32,0,0,0,.2-.72A2.6,2.6,0,0,0,659,341c-1.7-.66-3.29.43-4.07,2.42-.72,1.83-.42,3.69,1.35,4.38a2.65,2.65,0,0,0,3.17-1,2.89,2.89,0,0,0,.35-.68Z" transform="translate(-109.5 -110.36)"/><path class="i" d="M669,347c.42-1.06.76-2,1-2.84l1.43.56-.64,1.79.07,0a2.91,2.91,0,0,1,3.27-1,1.74,1.74,0,0,1,.45.24l-.61,1.54a2.71,2.71,0,0,0-.54-.27,2.46,2.46,0,0,0-3,1.24,4.51,4.51,0,0,0-.38.73l-1.88,4.8-1.62-.63Z" transform="translate(-109.5 -110.36)"/><path class="i" d="M682.43,354.13a4.74,4.74,0,0,1-6.37,3c-2.43-1-3.61-3.49-2.49-6.34,1.18-3,3.85-4,6.35-3S683.51,351.37,682.43,354.13Zm-7.18-2.72c-.78,2-.23,3.91,1.37,4.54s3.32-.4,4.11-2.43c.6-1.52.6-3.76-1.33-4.52S675.92,349.69,675.25,351.41Z" transform="translate(-109.5 -110.36)"/><path class="i" d="M692.65,358.14c-1.31,3.34-4.19,3.88-6.37,3-2.44-1-3.61-3.48-2.49-6.33,1.18-3,3.85-4,6.35-3S693.73,355.39,692.65,358.14Zm-7.19-2.72c-.77,2-.22,3.91,1.38,4.54s3.31-.39,4.11-2.42c.6-1.53.6-3.76-1.34-4.52S686.14,353.71,685.46,355.42Z" transform="translate(-109.5 -110.36)"/><path class="i" d="M695.5,357c.36-.93.64-1.7.88-2.46l1.44.56-.5,1.48,0,0a3.34,3.34,0,0,1,3.49-.54,2.88,2.88,0,0,1,1.84,2.81h0a4.21,4.21,0,0,1,1.47-.78,3.39,3.39,0,0,1,2.24.15c1.19.47,2.65,2,1.42,5.08l-2.08,5.3-1.6-.63,2-5.1c.68-1.73.46-3-.86-3.54a2.27,2.27,0,0,0-2.52.73,2.71,2.71,0,0,0-.46.77l-2.18,5.56-1.61-.63,2.13-5.4c.56-1.43.34-2.72-.91-3.21a2.4,2.4,0,0,0-2.67.84,2.34,2.34,0,0,0-.45.75l-2.14,5.43-1.6-.63Z" transform="translate(-109.5 -110.36)"/><path class="i" d="M1246.66,542.66a17.08,17.08,0,0,1,3.26-.8,5.52,5.52,0,0,1,4,.46,3.35,3.35,0,0,1,1.45,2.36,3.52,3.52,0,0,1-2,3.8v.06a3.37,3.37,0,0,1,2.39,2.38,20.91,20.91,0,0,0,1.61,3.48l-1.78.29a17.14,17.14,0,0,1-1.4-3c-.69-1.77-1.51-2.35-3.08-2.16l-1.62.26.93,5.77-1.72.28Zm2.69,5.79,1.76-.28c1.84-.3,2.84-1.49,2.6-3-.28-1.72-1.64-2.27-3.46-2a7.36,7.36,0,0,0-1.68.43Z" transform="translate(-109.5 -110.36)"/><path class="i" d="M1267.29,547.84c.56,3.54-1.64,5.47-4,5.84-2.59.42-4.89-1.16-5.37-4.18-.52-3.2,1.28-5.41,3.92-5.84S1266.82,544.92,1267.29,547.84Zm-7.57,1.32c.33,2.09,1.79,3.48,3.49,3.21s2.65-2,2.31-4.18c-.26-1.62-1.4-3.55-3.46-3.22S1259.42,547.34,1259.72,549.16Z" transform="translate(-109.5 -110.36)"/><path class="i" d="M1278.13,546.1c.56,3.54-1.64,5.47-4,5.84-2.59.42-4.89-1.16-5.37-4.18-.52-3.2,1.28-5.41,3.92-5.84S1277.66,543.18,1278.13,546.1Zm-7.57,1.32c.33,2.09,1.79,3.48,3.49,3.21s2.65-2,2.31-4.18c-.26-1.62-1.4-3.55-3.46-3.22S1270.26,545.6,1270.56,547.42Z" transform="translate(-109.5 -110.36)"/><path class="i" d="M1280,543.64c-.16-1-.31-1.8-.5-2.58l1.52-.24.33,1.53h.06a3.33,3.33,0,0,1,2.72-2.24,2.85,2.85,0,0,1,3,1.48h0a3.93,3.93,0,0,1,.87-1.41,3.25,3.25,0,0,1,2-1c1.27-.21,3.28.32,3.81,3.64l.9,5.63-1.7.27-.86-5.41c-.3-1.84-1.15-2.84-2.55-2.61a2.27,2.27,0,0,0-1.8,1.91,2.94,2.94,0,0,0,0,.89l1,5.91-1.7.27-.92-5.73c-.24-1.52-1.09-2.52-2.42-2.31a2.42,2.42,0,0,0-1.87,2.09,2.31,2.31,0,0,0,0,.87l.92,5.77-1.7.27Z" transform="translate(-109.5 -110.36)"/><path class="i" d="M1301.72,534.74a1.09,1.09,0,0,1-2.15.34,1.07,1.07,0,0,1,.91-1.26A1.05,1.05,0,0,1,1301.72,534.74Zm0,12.55-1.53-9.56,1.73-.27,1.54,9.56Z" transform="translate(-109.5 -110.36)"/><path class="i" d="M1305.25,539.58c-.16-1-.31-1.79-.49-2.57l1.54-.25.35,1.56h0a3.57,3.57,0,0,1,2.87-2.31c1.33-.21,3.51.25,4,3.53l.92,5.71-1.74.28-.88-5.51c-.25-1.54-1-2.74-2.67-2.47a2.49,2.49,0,0,0-2,2.15,2.33,2.33,0,0,0,0,.83l.92,5.74-1.74.28Z" transform="translate(-109.5 -110.36)"/><path class="i" d="M1317.51,544.77l-1.32-8.24-1.35.22-.21-1.33,1.34-.21-.07-.46a4.6,4.6,0,0,1,.57-3.51,3.37,3.37,0,0,1,2.19-1.27,4.39,4.39,0,0,1,1.53,0l0,1.38a2.72,2.72,0,0,0-1.14,0c-1.48.24-1.64,1.61-1.41,3.07l.08.51,2.31-.37.22,1.32-2.31.37,1.32,8.24Z" transform="translate(-109.5 -110.36)"/><path class="i" d="M1330.71,537.66c.57,3.54-1.63,5.47-3.94,5.84-2.59.42-4.89-1.16-5.38-4.18-.51-3.2,1.28-5.41,3.93-5.84S1330.24,534.74,1330.71,537.66Zm-7.57,1.32c.34,2.09,1.8,3.48,3.5,3.21s2.65-2,2.3-4.18c-.26-1.62-1.4-3.55-3.45-3.22S1322.85,537.16,1323.14,539Z" transform="translate(-109.5 -110.36)"/></svg>